<svg width="316" height="178" viewBox="0 0 316 178" fill="none" xmlns="http://www.w3.org/2000/svg">
<path d="M0.947879 70.945C-6.65923 7.18431 83.8653 13.4706 178.954 0C378.263 0 312.076 150.87 271.759 171.525C231.441 192.18 201.773 155.361 128.745 171.525C55.7169 187.69 8.55499 134.706 0.947879 70.945Z" fill="#161920"/>
<path d="M272.555 158.83C271.156 157.058 270.584 156.643 269.204 154.855C257.967 140.278 247.405 125.208 237.518 109.647C230.802 99.0777 224.42 88.3057 218.37 77.3308C215.49 72.1132 212.689 66.8546 209.967 61.5551C207.854 57.446 205.789 53.3123 203.771 49.1541C203.194 47.9664 202.633 46.7733 202.075 45.5774C200.76 42.7652 199.47 39.9393 198.084 37.1653C196.506 34.0036 194.584 30.6891 191.685 28.5649C190.365 27.5585 188.787 26.9496 187.136 26.8093C184.776 26.6564 182.598 27.6339 180.551 28.7014C165.573 36.5346 151.552 46.3555 138.869 57.5307C126.154 68.7309 114.789 81.3844 105.005 95.2334C104.706 95.662 103.998 95.2525 104.3 94.8211C105.49 93.1338 106.703 91.4646 107.94 89.8137C123.318 69.2999 142.174 51.6591 163.646 37.6977C167.259 35.3497 170.939 33.1117 174.687 30.9839C176.576 29.9109 178.474 28.8516 180.404 27.8577C182.296 26.883 184.305 26.0066 186.466 25.9738C193.821 25.8592 197.63 34.2139 200.246 39.8356C201.068 41.6048 201.9 43.3686 202.742 45.1269C205.924 51.8025 209.229 58.4171 212.656 64.9707C214.771 69.017 216.933 73.0397 219.14 77.0386C226.011 89.4915 233.314 101.692 241.048 113.641C251.295 129.469 261.459 143.45 273.132 158.251C273.453 158.661 272.879 159.245 272.555 158.83Z" fill="url(#paint0_linear_13438_79884)"/>
<path d="M179.631 165.987C179.631 165.987 182.257 159.515 174.378 154.66L179.631 165.987Z" fill="#555555"/>
<path d="M182.861 165.871C182.861 165.871 183.662 161.258 189.863 161.297L182.861 165.871Z" fill="#555555"/>
<path d="M91.693 165.987C91.693 165.987 94.3194 159.515 86.4405 154.66L91.693 165.987Z" fill="#555555"/>
<path d="M94.9238 165.871C94.9238 165.871 95.7249 161.258 101.926 161.297L94.9238 165.871Z" fill="#555555"/>
<path d="M93.8583 124.078C81.2501 124.078 71.0292 113.845 71.0292 101.221C71.0292 88.5969 81.2501 78.3633 93.8583 78.3633C106.467 78.3633 116.688 88.5969 116.688 101.221C116.688 113.845 106.467 124.078 93.8583 124.078Z" fill="url(#paint1_linear_13438_79884)" fill-opacity="0.8"/>
<path d="M93.7928 101.219H93.73L92.601 166.024H94.9844L93.7928 101.219Z" fill="url(#paint2_linear_13438_79884)" fill-opacity="0.8"/>
<path d="M44.8413 135.429C35.6452 135.429 28.1903 127.965 28.1903 118.758C28.1903 109.55 35.6452 102.086 44.8413 102.086C54.0373 102.086 61.4922 109.55 61.4922 118.758C61.4922 127.965 54.0373 135.429 44.8413 135.429Z" fill="url(#paint3_linear_13438_79884)" fill-opacity="0.8"/>
<path d="M44.7948 118.758H44.7491L43.9257 166.025H45.6641L44.7948 118.758Z" fill="url(#paint4_linear_13438_79884)" fill-opacity="0.8"/>
<path d="M65.815 95.843C44.8899 95.843 27.9268 78.8589 27.9268 57.9079C27.9268 36.9568 44.8899 19.9727 65.815 19.9727C86.74 19.9727 103.703 36.9568 103.703 57.9079C103.703 78.8589 86.74 95.843 65.815 95.843Z" fill="url(#paint5_linear_13438_79884)" fill-opacity="0.8"/>
<path opacity="0.1" d="M37.8359 32.5703C34.3018 40.8475 33.8223 50.1132 36.4833 58.7118C39.1442 67.3103 44.7721 74.6813 52.3613 79.5077C59.9505 84.3341 69.0065 86.3013 77.9109 85.0578C86.8154 83.8143 94.9882 79.4412 100.969 72.7198C98.8098 77.7768 95.5787 82.3034 91.4991 85.986C87.4194 89.6686 82.589 92.4191 77.3423 94.0469C72.0956 95.6747 66.5582 96.141 61.1137 95.4134C55.6692 94.6858 50.4477 92.7817 45.8112 89.833C41.1746 86.8844 37.2337 82.9617 34.2616 78.3367C31.2894 73.7117 29.3571 68.4951 28.5985 63.0482C27.8399 57.6012 28.2731 52.0543 29.8681 46.7917C31.4632 41.529 34.1819 36.6765 37.8359 32.5703Z" fill="black"/>
<path d="M65.9167 57.9062H66.0209L67.8945 165.459H63.939L65.9167 57.9062Z" fill="url(#paint6_linear_13438_79884)" fill-opacity="0.8"/>
<path d="M38.4055 165.973H314.743C314.831 165.973 314.915 165.92 314.977 165.826C315.039 165.732 315.074 165.605 315.074 165.473C315.074 165.34 315.039 165.213 314.977 165.119C314.915 165.025 314.831 164.973 314.743 164.973H38.4055C38.3177 164.973 38.2334 165.025 38.1713 165.119C38.1091 165.213 38.0742 165.34 38.0742 165.473C38.0742 165.605 38.1091 165.732 38.1713 165.826C38.2334 165.92 38.3177 165.973 38.4055 165.973Z" fill="url(#paint7_linear_13438_79884)"/>
<path d="M138.549 53.7542C138.126 53.2672 137.706 52.7803 137.281 52.2933C133.927 48.4589 130.329 44.669 125.723 42.4708C123.527 41.3895 121.13 40.8151 118.698 40.7873C116.184 40.7957 113.726 41.4774 111.403 42.4318C110.305 42.8854 109.231 43.4002 108.173 43.9483C106.964 44.5772 105.777 45.2478 104.596 45.924C102.378 47.1929 100.188 48.5174 98.028 49.8975C93.7293 52.6439 89.5652 55.6 85.5357 58.7656C83.4469 60.4074 81.4012 62.1029 79.3985 63.8522C77.5359 65.4772 75.7109 67.1459 73.9236 68.8581C73.5414 69.2226 72.9708 68.6327 73.353 68.2682C73.824 67.8146 74.3005 67.3638 74.7769 66.9186C76.1228 65.6609 77.4902 64.4273 78.8791 63.2178C81.4119 61.0084 84.0103 58.8844 86.6743 56.8457C90.8169 53.6735 95.1021 50.7165 99.5299 47.9748C101.743 46.6057 103.986 45.2942 106.259 44.0402C106.946 43.6617 107.64 43.2917 108.343 42.941C109.937 42.1098 111.593 41.4129 113.295 40.8569C115.707 40.0504 118.258 39.7913 120.776 40.0972C123.206 40.4627 125.548 41.3002 127.677 42.5654C132.199 45.1783 135.706 49.2186 139.12 53.1615C139.464 53.5622 138.896 54.1549 138.549 53.7542Z" fill="url(#paint8_linear_13438_79884)"/>
<path d="M231.723 92.0338L242.712 88.0011L248.168 85.9988C249.944 85.3467 251.717 84.6043 253.554 84.1374C255.15 83.6798 256.845 83.7015 258.429 84.1997C259.842 84.7244 261.135 85.5287 262.232 86.5649C263.353 87.6002 264.395 88.7173 265.351 89.907C266.539 91.3394 267.709 92.7868 268.885 94.2293C273.737 100.183 278.557 106.162 283.345 112.168C288.133 118.173 292.89 124.203 297.614 130.26C302.35 136.331 307.053 142.427 311.724 148.549C312.296 149.299 312.867 150.049 313.439 150.8C313.754 151.215 314.466 150.806 314.146 150.385C309.441 144.202 304.703 138.044 299.932 131.911C295.15 125.764 290.334 119.642 285.486 113.547C280.637 107.452 275.756 101.383 270.842 95.3411C269.618 93.8358 268.392 92.3321 267.163 90.8301C266.127 89.5631 265.103 88.2825 263.967 87.1032C261.881 84.9386 259.274 83.0257 256.155 82.9738C254.321 82.9433 252.546 83.5273 250.842 84.1458C249.005 84.8127 247.172 85.492 245.337 86.1653L234.271 90.2263L231.505 91.2415C231.014 91.4217 231.226 92.216 231.723 92.0338Z" fill="url(#paint9_linear_13438_79884)"/>
<path d="M124.098 46.8267C118.512 43.9206 111.359 44.4898 106.227 48.1206C116.017 49.8305 125.7 52.1184 135.227 54.9727C131.271 52.6257 128.176 48.9486 124.098 46.8267Z" fill="url(#paint10_linear_13438_79884)"/>
<path d="M262.531 92.1884C261.465 90.8776 260.311 89.5051 258.716 88.9727L257.227 89.032C268.565 109.26 283.878 126.935 302.227 140.973C288.995 124.711 275.763 108.45 262.531 92.1884Z" fill="url(#paint11_linear_13438_79884)"/>
<path d="M235.727 54.9727C246.496 54.9727 255.227 46.2422 255.227 35.4727C255.227 24.7031 246.496 15.9727 235.727 15.9727C224.957 15.9727 216.227 24.7031 216.227 35.4727C216.227 46.2422 224.957 54.9727 235.727 54.9727Z" fill="url(#paint12_linear_13438_79884)"/>
<path d="M280.588 20.2043C271.215 18.8588 260.513 24.2393 258.084 33.9472C257.472 32.2211 256.359 30.7464 254.905 29.7362C253.452 28.7259 251.734 28.2324 250 28.3269C248.265 28.4215 246.604 29.0991 245.256 30.262C243.908 31.4249 242.943 33.0129 242.5 34.7965L243.573 35.6127C263.66 40.2257 284.453 40.1259 304.5 35.3201C297.98 28.0431 289.961 21.5498 280.588 20.2043Z" fill="url(#paint13_linear_13438_79884)"/>
<path d="M231.588 46.1936C222.215 44.9189 211.513 50.0161 209.084 59.2131C208.472 57.5779 207.359 56.1808 205.905 55.2238C204.452 54.2667 202.734 53.7991 201 53.8887C199.265 53.9782 197.604 54.6202 196.256 55.7219C194.908 56.8236 193.943 58.328 193.5 60.0177L194.573 60.791C214.66 65.1612 235.453 65.0666 255.5 60.5138C248.98 53.6198 240.961 47.4683 231.588 46.1936Z" fill="url(#paint14_linear_13438_79884)"/>
<path d="M150.38 128.973V121.693H137.5V119.733L150.38 100.973H152.9V119.333H158.94V121.693H152.9V128.973H150.38ZM140.66 119.333H150.38V105.093L140.66 119.333ZM172.908 129.453C170.802 129.453 168.935 128.839 167.308 127.613C165.708 126.359 164.442 124.653 163.508 122.493C162.602 120.306 162.148 117.799 162.148 114.973C162.148 112.146 162.602 109.653 163.508 107.493C164.442 105.306 165.708 103.599 167.308 102.373C168.935 101.119 170.802 100.493 172.908 100.493C175.015 100.493 176.868 101.119 178.468 102.373C180.095 103.599 181.362 105.306 182.268 107.493C183.202 109.653 183.668 112.146 183.668 114.973C183.668 117.799 183.202 120.306 182.268 122.493C181.362 124.653 180.095 126.359 178.468 127.613C176.868 128.839 175.015 129.453 172.908 129.453ZM172.908 127.133C174.508 127.133 175.922 126.613 177.148 125.573C178.402 124.533 179.375 123.106 180.068 121.293C180.762 119.453 181.108 117.346 181.108 114.973C181.108 112.599 180.762 110.506 180.068 108.693C179.375 106.853 178.402 105.413 177.148 104.373C175.922 103.333 174.508 102.813 172.908 102.813C171.308 102.813 169.882 103.333 168.628 104.373C167.402 105.413 166.442 106.853 165.748 108.693C165.055 110.506 164.708 112.599 164.708 114.973C164.708 117.346 165.055 119.453 165.748 121.293C166.442 123.106 167.402 124.533 168.628 125.573C169.882 126.613 171.308 127.133 172.908 127.133ZM200.536 128.973V121.693H187.656V119.733L200.536 100.973H203.056V119.333H209.096V121.693H203.056V128.973H200.536ZM190.816 119.333H200.536V105.093L190.816 119.333Z" fill="white"/>
<defs>
<linearGradient id="paint0_linear_13438_79884" x1="104.227" y1="25.9727" x2="273.227" y2="25.9727" gradientUnits="userSpaceOnUse">
<stop stop-color="#B7B8B9" stop-opacity="0"/>
<stop offset="1" stop-color="#B7B8B9" stop-opacity="0.8"/>
</linearGradient>
<linearGradient id="paint1_linear_13438_79884" x1="116.688" y1="78.3633" x2="71.0292" y2="78.3633" gradientUnits="userSpaceOnUse">
<stop offset="0.0260417" stop-color="#D2FED6"/>
<stop offset="1" stop-color="#D2FED6" stop-opacity="0.27"/>
</linearGradient>
<linearGradient id="paint2_linear_13438_79884" x1="94.9844" y1="101.219" x2="92.601" y2="101.219" gradientUnits="userSpaceOnUse">
<stop offset="0.0260417" stop-color="#D2FED6"/>
<stop offset="1" stop-color="#D2FED6" stop-opacity="0.27"/>
</linearGradient>
<linearGradient id="paint3_linear_13438_79884" x1="61.4922" y1="102.086" x2="28.1903" y2="102.086" gradientUnits="userSpaceOnUse">
<stop offset="0.0260417" stop-color="#D2FED6"/>
<stop offset="1" stop-color="#D2FED6" stop-opacity="0.27"/>
</linearGradient>
<linearGradient id="paint4_linear_13438_79884" x1="45.6641" y1="118.758" x2="43.9257" y2="118.758" gradientUnits="userSpaceOnUse">
<stop offset="0.0260417" stop-color="#D2FED6"/>
<stop offset="1" stop-color="#D2FED6" stop-opacity="0.27"/>
</linearGradient>
<linearGradient id="paint5_linear_13438_79884" x1="103.703" y1="19.9727" x2="27.9268" y2="19.9727" gradientUnits="userSpaceOnUse">
<stop offset="0.0260417" stop-color="#D2FED6"/>
<stop offset="1" stop-color="#D2FED6" stop-opacity="0.27"/>
</linearGradient>
<linearGradient id="paint6_linear_13438_79884" x1="67.8945" y1="57.9062" x2="63.939" y2="57.9063" gradientUnits="userSpaceOnUse">
<stop offset="0.0260417" stop-color="#D2FED6"/>
<stop offset="1" stop-color="#D2FED6" stop-opacity="0.27"/>
</linearGradient>
<linearGradient id="paint7_linear_13438_79884" x1="315.074" y1="164.973" x2="38.0742" y2="164.973" gradientUnits="userSpaceOnUse">
<stop stop-color="#B7B8B9" stop-opacity="0"/>
<stop offset="1" stop-color="#B7B8B9" stop-opacity="0.8"/>
</linearGradient>
<linearGradient id="paint8_linear_13438_79884" x1="73.2266" y1="39.9727" x2="139.227" y2="39.9727" gradientUnits="userSpaceOnUse">
<stop stop-color="#B7B8B9" stop-opacity="0"/>
<stop offset="1" stop-color="#B7B8B9" stop-opacity="0.8"/>
</linearGradient>
<linearGradient id="paint9_linear_13438_79884" x1="231.227" y1="82.9727" x2="314.227" y2="82.9727" gradientUnits="userSpaceOnUse">
<stop stop-color="#B7B8B9" stop-opacity="0"/>
<stop offset="1" stop-color="#B7B8B9" stop-opacity="0.8"/>
</linearGradient>
<linearGradient id="paint10_linear_13438_79884" x1="106.227" y1="44.9727" x2="135.227" y2="44.9727" gradientUnits="userSpaceOnUse">
<stop stop-color="#B7B8B9" stop-opacity="0"/>
<stop offset="1" stop-color="#B7B8B9" stop-opacity="0.8"/>
</linearGradient>
<linearGradient id="paint11_linear_13438_79884" x1="257.227" y1="88.9727" x2="302.227" y2="88.9727" gradientUnits="userSpaceOnUse">
<stop stop-color="#B7B8B9" stop-opacity="0"/>
<stop offset="1" stop-color="#B7B8B9" stop-opacity="0.8"/>
</linearGradient>
<linearGradient id="paint12_linear_13438_79884" x1="216.227" y1="15.9727" x2="255.227" y2="15.9727" gradientUnits="userSpaceOnUse">
<stop stop-color="#B79E5F"/>
<stop offset="1" stop-color="#B79E5F" stop-opacity="0.42"/>
</linearGradient>
<linearGradient id="paint13_linear_13438_79884" x1="309.344" y1="20" x2="238.625" y2="20" gradientUnits="userSpaceOnUse">
<stop stop-color="#FF80EB" stop-opacity="0"/>
<stop offset="1" stop-color="#FF80EB"/>
</linearGradient>
<linearGradient id="paint14_linear_13438_79884" x1="260.344" y1="46" x2="189.625" y2="46" gradientUnits="userSpaceOnUse">
<stop stop-color="#FF80EB" stop-opacity="0"/>
<stop offset="1" stop-color="#FF80EB"/>
</linearGradient>
</defs>
</svg>
