<svg width="24" height="24" viewBox="0 0 24 24" fill="none" xmlns="http://www.w3.org/2000/svg">
<g id="Icon/ic-calender">
<path id="Vector" d="M4.94232 21.4981C4.55017 21.4981 4.21175 21.3558 3.92705 21.0711C3.64235 20.7864 3.5 20.448 3.5 20.0558V5.57514C3.5 5.18299 3.64235 4.84456 3.92705 4.55986C4.21175 4.27516 4.55017 4.13281 4.94232 4.13281H6.78848V2.38281H8.04808V4.13281H15.9904V2.38281H17.2211V4.13281H19.0576C19.4498 4.13281 19.7882 4.27516 20.0729 4.55986C20.3576 4.84456 20.5 5.18299 20.5 5.57514V20.0558C20.5 20.448 20.3576 20.7864 20.0729 21.0711C19.7882 21.3558 19.4498 21.4981 19.0576 21.4981H4.94232ZM4.94232 20.3635H19.0576C19.1346 20.3635 19.2051 20.3315 19.2692 20.2674C19.3333 20.2033 19.3654 20.1327 19.3654 20.0558V10.1232H4.6346V20.0558C4.6346 20.1327 4.66665 20.2033 4.73075 20.2674C4.79487 20.3315 4.86539 20.3635 4.94232 20.3635ZM4.6346 8.98861H19.3654V5.57514C19.3654 5.4982 19.3333 5.42768 19.2692 5.36356C19.2051 5.29946 19.1346 5.26741 19.0576 5.26741H4.94232C4.86539 5.26741 4.79487 5.29946 4.73075 5.36356C4.66665 5.42768 4.6346 5.4982 4.6346 5.57514V8.98861Z" fill="#DDDDDD"/>
</g>
</svg>
