<svg width="32" height="32" viewBox="0 0 32 32" fill="none" xmlns="http://www.w3.org/2000/svg">
<g id="DS Icons">
<path id="Vector" d="M15.668 28C15.3846 28 15.1471 27.9036 14.9555 27.7108C14.7638 27.518 14.668 27.2791 14.668 26.9942C14.668 26.7092 14.7638 26.4722 14.9555 26.2833C15.1471 26.0944 15.3846 26 15.668 26H26.0013V15.8667C26.0013 13.1181 25.0311 10.7865 23.0906 8.8719C21.1501 6.9573 18.787 6 16.0013 6C13.2156 6 10.8525 6.9573 8.912 8.8719C6.97154 10.7865 6.0013 13.1181 6.0013 15.8667V23.3333C6.0013 23.5222 5.93741 23.6806 5.80964 23.8083C5.68186 23.9361 5.52352 24 5.33464 24C4.6013 24 3.97352 23.7389 3.4513 23.2167C2.92908 22.6944 2.66797 22.0667 2.66797 21.3333V18.6667C2.66797 18.2 2.78464 17.7611 3.01797 17.35C3.2513 16.9389 3.57908 16.6111 4.0013 16.3667L4.1013 14.6C4.27908 13.0889 4.71797 11.6889 5.41797 10.4C6.11797 9.11111 6.99575 7.98889 8.0513 7.03333C9.10686 6.07778 10.318 5.33333 11.6846 4.8C13.0513 4.26667 14.4902 4 16.0013 4C17.5124 4 18.9457 4.26667 20.3013 4.8C21.6569 5.33333 22.868 6.07222 23.9346 7.01667C25.0013 7.96111 25.8791 9.07778 26.568 10.3667C27.2569 11.6556 27.7013 13.0556 27.9013 14.5667L28.0013 16.3C28.4235 16.5 28.7513 16.8 28.9846 17.2C29.218 17.6 29.3346 18.0222 29.3346 18.4667V21.5333C29.3346 21.9778 29.218 22.4 28.9846 22.8C28.7513 23.2 28.4235 23.5 28.0013 23.7V26C28.0013 26.55 27.8055 27.0208 27.4138 27.4125C27.0221 27.8042 26.5513 28 26.0013 28H15.668ZM11.9955 18.3333C11.7105 18.3333 11.4735 18.2369 11.2846 18.0442C11.0957 17.8514 11.0013 17.6125 11.0013 17.3275C11.0013 17.0425 11.0977 16.8056 11.2905 16.6167C11.4833 16.4278 11.7222 16.3333 12.0071 16.3333C12.2921 16.3333 12.5291 16.4297 12.718 16.6225C12.9069 16.8153 13.0013 17.0542 13.0013 17.3392C13.0013 17.6242 12.9049 17.8611 12.7121 18.05C12.5193 18.2389 12.2804 18.3333 11.9955 18.3333ZM19.9955 18.3333C19.7105 18.3333 19.4735 18.2369 19.2846 18.0442C19.0957 17.8514 19.0013 17.6125 19.0013 17.3275C19.0013 17.0425 19.0977 16.8056 19.2905 16.6167C19.4833 16.4278 19.7222 16.3333 20.0071 16.3333C20.2921 16.3333 20.5291 16.4297 20.718 16.6225C20.9069 16.8153 21.0013 17.0542 21.0013 17.3392C21.0013 17.6242 20.9049 17.8611 20.7121 18.05C20.5193 18.2389 20.2804 18.3333 19.9955 18.3333ZM8.03464 16.6C7.87908 14.2444 8.59019 12.2222 10.168 10.5333C11.7457 8.84444 13.7124 8 16.068 8C18.0013 8 19.6791 8.63889 21.1013 9.91667C22.5235 11.1944 23.3902 12.7889 23.7013 14.7C21.7235 14.6778 19.918 14.1222 18.2846 13.0333C16.6513 11.9444 15.3871 10.5111 14.4919 8.73333C14.1426 10.5111 13.3957 12.0944 12.2513 13.4833C11.1069 14.8722 9.7013 15.9111 8.03464 16.6Z" fill="#999999"/>
</g>
</svg>
