<svg xmlns="http://www.w3.org/2000/svg" width="80" height="21" viewBox="0 0 80 21" fill="none">
<path d="M16.9889 7.43359C13.1615 7.43359 10.7578 10.2443 10.7578 13.6821C10.7578 17.1432 13.1149 19.9307 17.0122 19.9307C20.9095 19.9307 23.2899 17.1432 23.2899 13.6821C23.3132 10.2443 20.8395 7.43359 16.9889 7.43359ZM17.0122 17.2129C14.8418 17.2129 13.745 15.5172 13.745 13.6821C13.745 11.8935 14.8652 10.1281 17.0122 10.1281C19.0192 10.1281 20.2794 11.8703 20.2794 13.6821C20.3027 15.494 19.2059 17.2129 17.0122 17.2129Z" fill="white"/>
<path d="M78.0636 10.4994C77.9236 10.662 77.6669 10.6852 77.4802 10.5691C76.71 9.96512 75.8466 9.77929 74.8431 9.77929C73.4428 9.77929 72.6727 10.2206 72.6727 10.964C72.6727 11.7305 73.3728 12.1719 74.8897 12.2648C77.1301 12.4041 80.0006 12.9152 80.0006 16.0743C80.0006 18.1649 78.2736 19.9767 74.8664 19.9767C73.0694 19.9767 71.2725 19.698 69.6155 18.1184C69.4755 17.9791 69.4522 17.7468 69.5689 17.5842L70.549 16.1672C70.689 15.9581 70.9691 15.9349 71.1558 16.0743C72.1126 16.8408 73.7462 17.3983 74.9364 17.4216C76.0566 17.4448 77.0834 16.8641 77.0834 16.0046C77.0834 15.1916 76.4067 14.8432 74.7264 14.7503C72.486 14.5877 69.8022 13.7746 69.8022 11.0801C69.8022 8.3391 72.6494 7.38672 74.8197 7.38672C76.5233 7.38672 77.8536 7.68869 79.1371 8.68753C79.3238 8.82691 79.3471 9.10565 79.1838 9.29148L78.0636 10.4994Z" fill="white"/>
<path d="M33.8398 0.348432V8.29268C32.9064 7.75842 31.7862 7.45645 30.526 7.45645C26.6987 7.45645 24.2949 10.2671 24.2949 13.705C24.2949 17.1429 26.6286 19.9303 30.5493 19.9303C31.8095 19.9303 32.9297 19.6283 33.8398 19.1173C33.8398 19.5819 34.2132 19.9768 34.7033 19.9768H36.477C36.6636 19.9768 36.827 19.8142 36.827 19.6283V0.348432C36.827 0.162602 36.6636 0 36.477 0H34.1899C34.0032 0 33.8398 0.139373 33.8398 0.348432ZM30.5493 17.2125C28.3789 17.2125 27.2821 15.5168 27.2821 13.6818C27.2821 11.8932 28.4023 10.1278 30.5493 10.1278C32.5563 10.1278 33.8165 11.8699 33.8165 13.6818C33.8165 15.4936 32.7197 17.2125 30.5493 17.2125Z" fill="white"/>
<path d="M65.2051 7.66757V8.29475C64.2716 7.76048 63.1514 7.45851 61.8912 7.45851C58.0639 7.45851 55.6602 10.2692 55.6602 13.7071C55.6602 17.1682 58.0172 19.9556 61.9145 19.9556C63.1747 19.9556 64.2949 19.6536 65.2051 19.1426C65.2051 19.6072 65.5785 20.0021 66.0686 20.0021H67.8422C68.0289 20.0021 68.1922 19.8395 68.1922 19.6536V7.6908C68.1922 7.50497 68.0289 7.34237 67.8422 7.34237H65.5551C65.3684 7.31914 65.2051 7.45851 65.2051 7.66757ZM61.9145 17.2146C59.7442 17.2146 58.6473 15.5189 58.6473 13.6838C58.6473 11.8952 59.7675 10.1298 61.9145 10.1298C63.9215 10.1298 65.1817 11.872 65.1817 13.6838C65.2051 15.4957 64.1082 17.2146 61.9145 17.2146Z" fill="white"/>
<path d="M44.855 10.5224C44.855 9.94168 44.6217 7.36328 41.5645 7.36328C40.0242 7.36328 38.3906 8.38535 38.3906 10.5224C38.3906 12.2646 39.4641 13.2634 40.701 13.5654C40.9577 13.6351 41.1911 13.6583 41.4478 13.6815C41.0744 15.3772 40.3276 17.3052 38.834 19.6049C38.7407 19.7442 38.8574 19.9533 39.0207 19.9533H41.5645C41.6345 19.9533 41.7045 19.9068 41.7512 19.8604C44.1783 16.5154 44.855 12.4504 44.855 10.5224Z" fill="white"/>
<path d="M41.634 5.76074C43.2323 5.76074 44.5279 4.47116 44.5279 2.88037C44.5279 1.28959 43.2323 0 41.634 0C40.0358 0 38.7402 1.28959 38.7402 2.88037C38.7402 4.47116 40.0358 5.76074 41.634 5.76074Z" fill="white"/>
<path d="M9.17153 16.2836C9.00817 16.121 8.72812 16.121 8.56476 16.2836C8.028 16.841 7.25787 17.1895 6.25437 17.1895C4.08401 17.1895 2.98716 15.4938 2.98716 13.6587C2.98716 11.8701 4.10735 10.1047 6.25437 10.1047C7.09451 10.1047 7.79463 10.4067 8.33139 10.8945C8.49475 11.0339 8.75146 11.0338 8.91482 10.8712L10.3617 9.40783C10.5251 9.24523 10.5251 8.94326 10.3384 8.80388C9.28821 7.94442 7.88798 7.41016 6.23104 7.41016C2.40373 7.41016 0 10.2208 0 13.6587C0 17.143 2.35706 19.9305 6.25437 19.9305C8.05134 19.9305 9.52159 19.3498 10.5951 18.3741C10.7818 18.2115 10.7818 17.9328 10.6184 17.7702L9.17153 16.2836Z" fill="white"/>
<path d="M54.9124 16.9803C54.7723 16.7247 54.469 16.6551 54.2122 16.7944C54.1422 16.8409 54.0489 16.8873 53.9789 16.9338C53.8389 17.0035 53.6988 17.0499 53.5588 17.0964C53.2554 17.1893 52.9287 17.259 52.6253 17.259C52.2519 17.259 51.9252 17.1661 51.6685 16.9803C51.2951 16.7015 51.0617 16.2369 51.0617 15.5633V10.3833C51.0617 10.1045 51.2718 9.89547 51.5518 9.89547H53.9322C54.2122 9.89547 54.4223 9.68641 54.4223 9.40767V9.33798V7.82811C54.4223 7.54936 54.2122 7.3403 53.9322 7.3403H51.5985C51.3184 7.3403 51.1084 7.13124 51.1084 6.8525V0.487806C51.1084 0.209061 50.8984 0 50.6183 0H48.6113C48.3313 0 48.1212 0.209061 48.1212 0.487806V6.8525C48.1212 7.13124 47.9112 7.3403 47.6312 7.3403H46.3709C46.0909 7.3403 45.8809 7.54936 45.8809 7.82811V9.40767C45.8809 9.68641 46.0909 9.89547 46.3709 9.89547H47.6312C47.9112 9.89547 48.1212 10.1045 48.1212 10.3833V11.7538V15.5633C48.1212 16.446 48.2613 17.2125 48.5413 17.8165C49.1947 19.2799 50.595 20 52.4386 19.9303C53.0921 19.9071 53.6288 19.8374 54.2122 19.6516C54.679 19.5354 55.1224 19.3496 55.5191 19.0941C55.7525 18.9547 55.8225 18.676 55.7058 18.4437L54.9124 16.9803Z" fill="white"/>
</svg>