<svg width="100" height="100" viewBox="0 0 100 100" fill="none" xmlns="http://www.w3.org/2000/svg">
<g id="Testimonial/Style3">
<path id="&#226;&#128;&#156;" d="M78.6046 54.8063C82.4528 54.8063 84.3769 56.7304 84.3769 60.5786V76.2278C84.3769 80.0759 82.4528 82 78.6046 82H63.7251C59.8769 82 57.9528 80.0759 57.9528 76.2278V60.5786C57.9528 51.5995 58.8935 43.7749 60.7748 37.1048C62.7417 30.3491 66.5471 24.4486 72.191 19.4032C74.0724 17.7784 75.6544 17.5647 76.9371 18.7619L82.7094 24.1493C83.9921 25.3465 83.6928 26.8002 81.8114 28.5105C78.9039 31.076 76.5095 34.7959 74.6282 39.6702C72.8324 44.459 71.9345 49.5044 71.9345 54.8063H78.6046ZM36.2749 54.8063C40.123 54.8063 42.0471 56.7304 42.0471 60.5786V76.2278C42.0471 80.0759 40.123 82 36.2749 82H21.3953C17.5471 82 15.623 80.0759 15.623 76.2278V60.5786C15.623 51.5995 16.5637 43.7749 18.445 37.1048C20.4119 30.3491 24.2173 24.4486 29.8612 19.4032C31.7426 17.7784 33.3246 17.5647 34.6073 18.7619L40.3796 24.1493C41.6623 25.3465 41.363 26.8002 39.4817 28.5105C36.5742 31.076 34.1797 34.7959 32.2984 39.6702C30.5026 44.459 29.6047 49.5044 29.6047 54.8063H36.2749Z" fill="#273237"/>
</g>
</svg>
