<svg width="24" height="24" viewBox="0 0 24 24" fill="none" xmlns="http://www.w3.org/2000/svg">
<g id="Icons" clip-path="url(#clip0_14606_7361)">
<mask id="mask0_14606_7361" style="mask-type:alpha" maskUnits="userSpaceOnUse" x="0" y="0" width="24" height="24">
<rect id="Bounding box" width="24" height="24" fill="#D9D9D9"/>
</mask>
<g mask="url(#mask0_14606_7361)">
<path id="delete" d="M7.3077 20.5017C6.80257 20.5017 6.375 20.3267 6.025 19.9767C5.675 19.6267 5.5 19.1992 5.5 18.694V6.00176H5.25C5.03718 6.00176 4.85898 5.92997 4.7154 5.78639C4.5718 5.6428 4.5 5.4646 4.5 5.25179C4.5 5.03897 4.5718 4.86077 4.7154 4.71719C4.85898 4.57359 5.03718 4.50179 5.25 4.50179H8.99997C8.99997 4.25052 9.08779 4.04027 9.26342 3.87104C9.43907 3.7018 9.65254 3.61719 9.90382 3.61719H14.0961C14.3474 3.61719 14.5609 3.7018 14.7365 3.87104C14.9122 4.04027 15 4.25052 15 4.50179H18.75C18.9628 4.50179 19.141 4.57359 19.2845 4.71719C19.4281 4.86077 19.5 5.03897 19.5 5.25179C19.5 5.4646 19.4281 5.6428 19.2845 5.78639C19.141 5.92997 18.9628 6.00176 18.75 6.00176H18.5V18.694C18.5 19.1992 18.325 19.6267 17.975 19.9767C17.625 20.3267 17.1974 20.5017 16.6922 20.5017H7.3077ZM6.99997 6.00176V18.694C6.99997 18.7838 7.02883 18.8575 7.08652 18.9152C7.14422 18.9729 7.21795 19.0018 7.3077 19.0018H16.6922C16.782 19.0018 16.8557 18.9729 16.9134 18.9152C16.9711 18.8575 17 18.7838 17 18.694V6.00176H6.99997ZM9.40385 16.2518C9.40385 16.4646 9.47564 16.6428 9.61922 16.7864C9.76281 16.93 9.94101 17.0018 10.1538 17.0018C10.3666 17.0018 10.5448 16.93 10.6884 16.7864C10.832 16.6428 10.9038 16.4646 10.9038 16.2518V8.75174C10.9038 8.53892 10.832 8.36072 10.6884 8.21714C10.5448 8.07355 10.3666 8.00176 10.1538 8.00176C9.94101 8.00176 9.76281 8.07355 9.61922 8.21714C9.47564 8.36072 9.40385 8.53892 9.40385 8.75174V16.2518ZM13.0961 16.2518C13.0961 16.4646 13.1679 16.6428 13.3115 16.7864C13.4551 16.93 13.6333 17.0018 13.8461 17.0018C14.0589 17.0018 14.2371 16.93 14.3807 16.7864C14.5243 16.6428 14.5961 16.4646 14.5961 16.2518V8.75174C14.5961 8.53892 14.5243 8.36072 14.3807 8.21714C14.2371 8.07355 14.0589 8.00176 13.8461 8.00176C13.6333 8.00176 13.4551 8.07355 13.3115 8.21714C13.1679 8.36072 13.0961 8.53892 13.0961 8.75174V16.2518ZM6.99997 6.00176V18.694C6.99997 18.7838 7.02883 18.8575 7.08652 18.9152C7.14422 18.9729 7.21795 19.0018 7.3077 19.0018H6.99997V6.00176Z" fill="#DDDDDD"/>
</g>
</g>
<defs>
<clipPath id="clip0_14606_7361">
<rect width="24" height="24" fill="white"/>
</clipPath>
</defs>
</svg>
