<svg width="24" height="24" viewBox="0 0 24 24" fill="none" xmlns="http://www.w3.org/2000/svg">
<path d="M11.4731 18.3442H12.6076V13.2903L14.7826 15.475L15.5827 14.675L12 11.1635L8.4577 14.7154L9.24805 15.5057L11.4731 13.2903V18.3442ZM5.94232 21.5C5.55017 21.5 5.21175 21.3576 4.92705 21.0729C4.64235 20.7882 4.5 20.4498 4.5 20.0576V3.94233C4.5 3.55017 4.64235 3.21175 4.92705 2.92705C5.21175 2.64235 5.55017 2.5 5.94232 2.5H14.6308L19.5 7.3692V20.0576C19.5 20.4498 19.3576 20.7882 19.0729 21.0729C18.7882 21.3576 18.4498 21.5 18.0576 21.5H5.94232ZM14.0634 7.88073V3.6346H5.94232C5.86539 3.6346 5.79487 3.66665 5.73075 3.73075C5.66665 3.79487 5.6346 3.86539 5.6346 3.94233V20.0576C5.6346 20.1346 5.66665 20.2051 5.73075 20.2692C5.79487 20.3333 5.86539 20.3654 5.94232 20.3654H18.0576C18.1346 20.3654 18.2051 20.3333 18.2692 20.2692C18.3333 20.2051 18.3654 20.1346 18.3654 20.0576V7.88073H14.0634Z" fill="#DDDDDD"/>
</svg>
