<svg width="32" height="32" viewBox="0 0 32 32" fill="none" xmlns="http://www.w3.org/2000/svg">
<g id="DS Icons">
<path id="Vector" d="M4.66797 26.6654C4.13464 26.6654 3.66797 26.4654 3.26797 26.0654C2.86797 25.6654 2.66797 25.1987 2.66797 24.6654V7.33203C2.66797 6.7987 2.86797 6.33203 3.26797 5.93203C3.66797 5.53203 4.13464 5.33203 4.66797 5.33203H27.3346C27.868 5.33203 28.3346 5.53203 28.7346 5.93203C29.1346 6.33203 29.3346 6.7987 29.3346 7.33203V24.6654C29.3346 25.1987 29.1346 25.6654 28.7346 26.0654C28.3346 26.4654 27.868 26.6654 27.3346 26.6654H4.66797ZM4.66797 24.6654H27.3346V10.132H4.66797V24.6654ZM12.0346 17.3987L9.26797 14.632C9.06797 14.432 8.97352 14.1987 8.98463 13.932C8.99575 13.6654 9.1013 13.432 9.3013 13.232C9.5013 13.032 9.73463 12.932 10.0013 12.932C10.268 12.932 10.5013 13.032 10.7013 13.232L14.168 16.6987C14.368 16.8987 14.468 17.132 14.468 17.3987C14.468 17.6654 14.368 17.8987 14.168 18.0987L10.7013 21.5654C10.5013 21.7654 10.268 21.8654 10.0013 21.8654C9.73463 21.8654 9.5013 21.7654 9.3013 21.5654C9.1013 21.3654 9.0013 21.132 9.0013 20.8654C9.0013 20.5987 9.1013 20.3654 9.3013 20.1654L12.0346 17.3987ZM17.3346 22.3987C17.0457 22.3987 16.8069 22.3043 16.618 22.1154C16.4291 21.9265 16.3346 21.6876 16.3346 21.3987C16.3346 21.1098 16.4291 20.8709 16.618 20.682C16.8069 20.4931 17.0457 20.3987 17.3346 20.3987H22.668C22.9569 20.3987 23.1957 20.4931 23.3846 20.682C23.5735 20.8709 23.668 21.1098 23.668 21.3987C23.668 21.6876 23.5735 21.9265 23.3846 22.1154C23.1957 22.3043 22.9569 22.3987 22.668 22.3987H17.3346Z" fill="#999999"/>
</g>
</svg>
