<svg width="32" height="32" viewBox="0 0 32 32" fill="none" xmlns="http://www.w3.org/2000/svg">
<g id="DS Icons">
<path id="Vector" d="M3.66243 24C3.01994 24 2.47092 23.7712 2.01536 23.3137C1.55981 22.8562 1.33203 22.3062 1.33203 21.6637C1.33203 21.0212 1.55974 20.4722 2.01516 20.0167C2.47059 19.5611 3.01806 19.3333 3.6576 19.3333C3.77389 19.3333 3.88759 19.3389 3.9987 19.35C4.10981 19.3611 4.25425 19.3889 4.43203 19.4333L11.0987 12.7667C11.0543 12.5889 11.0265 12.4444 11.0154 12.3333C11.0043 12.2222 10.9987 12.1085 10.9987 11.9922C10.9987 11.3527 11.2275 10.8052 11.685 10.3498C12.1425 9.89438 12.6925 9.66667 13.335 9.66667C13.9775 9.66667 14.5265 9.89593 14.982 10.3545C15.4376 10.813 15.6654 11.3642 15.6654 12.0081C15.6654 12.0472 15.632 12.3 15.5654 12.7667L19.232 16.4333C19.4098 16.3889 19.5543 16.3611 19.6654 16.35C19.7765 16.3389 19.8876 16.3333 19.9987 16.3333C20.1098 16.3333 20.2209 16.3389 20.332 16.35C20.4431 16.3611 20.5876 16.3889 20.7654 16.4333L26.0987 11.1C26.0543 10.9222 26.0265 10.7778 26.0154 10.6667C26.0043 10.5556 25.9987 10.4419 25.9987 10.3256C25.9987 9.68603 26.2275 9.13856 26.685 8.68313C27.1425 8.22771 27.6925 8 28.335 8C28.9775 8 29.5265 8.22877 29.982 8.6863C30.4376 9.14381 30.6654 9.69381 30.6654 10.3363C30.6654 10.9788 30.4377 11.5278 29.9822 11.9833C29.5268 12.4389 28.9793 12.6667 28.3398 12.6667C28.2235 12.6667 28.1098 12.6611 27.9987 12.65C27.8876 12.6389 27.7431 12.6111 27.5654 12.5667L22.232 17.9C22.2765 18.0778 22.3043 18.2222 22.3154 18.3333C22.3265 18.4444 22.332 18.5581 22.332 18.6744C22.332 19.314 22.1033 19.8614 21.6457 20.3169C21.1882 20.7723 20.6382 21 19.9957 21C19.3533 21 18.8043 20.7723 18.3487 20.3169C17.8931 19.8614 17.6654 19.314 17.6654 18.6744C17.6654 18.5581 17.6709 18.4444 17.682 18.3333C17.6931 18.2222 17.7209 18.0778 17.7654 17.9L14.0987 14.2333C13.9209 14.2778 13.7765 14.3056 13.6654 14.3167C13.5543 14.3278 13.4404 14.3333 13.3237 14.3333C13.2848 14.3333 13.032 14.3 12.5654 14.2333L5.8987 20.9C5.94314 21.0778 5.97092 21.2222 5.98203 21.3333C5.99314 21.4444 5.9987 21.5581 5.9987 21.6744C5.9987 22.314 5.76993 22.8614 5.3124 23.3169C4.85489 23.7723 4.3049 24 3.66243 24Z" fill="#999999"/>
</g>
</svg>
