<svg width="24" height="24" viewBox="0 0 24 24" fill="none" xmlns="http://www.w3.org/2000/svg">
<circle cx="12" cy="12" r="12" fill="#16AF24"/>
<path d="M10.3018 15.699C10.2352 15.699 10.174 15.6878 10.1185 15.6656C10.0629 15.6434 10.0074 15.6045 9.95182 15.549L6.93516 12.5323C6.83516 12.4323 6.78516 12.3101 6.78516 12.1656C6.78516 12.0212 6.83516 11.899 6.93516 11.799C7.03516 11.699 7.15182 11.649 7.28516 11.649C7.41849 11.649 7.53516 11.699 7.63516 11.799L10.3018 14.4656L16.3518 8.41563C16.4518 8.31563 16.5713 8.26562 16.7102 8.26562C16.849 8.26562 16.9685 8.31563 17.0685 8.41563C17.1685 8.51562 17.2185 8.63507 17.2185 8.77396C17.2185 8.91285 17.1685 9.03229 17.0685 9.13229L10.6518 15.549C10.5963 15.6045 10.5407 15.6434 10.4852 15.6656C10.4296 15.6878 10.3685 15.699 10.3018 15.699Z" fill="white"/>
</svg>
