<svg width="32" height="32" viewBox="0 0 32 32" fill="none" xmlns="http://www.w3.org/2000/svg">
<g id="DS Icons">
<path id="Vector" d="M1.26562 25.6688V23.5354C1.26562 22.7576 1.46563 22.0521 1.86563 21.4188C2.26562 20.7854 2.82118 20.3132 3.53229 20.0021C5.15451 19.291 6.61563 18.7799 7.91563 18.4688C9.21563 18.1576 10.5545 18.0021 11.9323 18.0021C13.3101 18.0021 14.6434 18.1576 15.9323 18.4688C17.2212 18.7799 18.6767 19.291 20.299 20.0021C21.0101 20.3132 21.5712 20.7854 21.9823 21.4188C22.3934 22.0521 22.599 22.7576 22.599 23.5354V25.6688C22.599 25.9521 22.5031 26.1896 22.3115 26.3813C22.1198 26.5729 21.8823 26.6688 21.599 26.6688H2.26562C1.98229 26.6688 1.74479 26.5729 1.55313 26.3813C1.36146 26.1896 1.26562 25.9521 1.26562 25.6688ZM24.1323 26.6688C24.2656 26.5354 24.3767 26.3743 24.4656 26.1854C24.5545 25.9965 24.599 25.8021 24.599 25.6021V23.5354C24.599 22.1354 24.2434 20.9854 23.5323 20.0854C22.8212 19.1854 21.8878 18.4576 20.7323 17.9021C22.2656 18.0799 23.7101 18.341 25.0656 18.6854C26.4212 19.0299 27.5212 19.4243 28.3656 19.8688C29.099 20.291 29.6767 20.8132 30.099 21.4354C30.5212 22.0576 30.7323 22.7576 30.7323 23.5354V25.6523C30.7323 25.9521 30.6365 26.1965 30.4448 26.3854C30.2531 26.5743 30.0156 26.6688 29.7323 26.6688H24.1323ZM11.9323 15.9688C10.4656 15.9688 9.26562 15.5021 8.33229 14.5688C7.39896 13.6354 6.93229 12.4354 6.93229 10.9688C6.93229 9.50208 7.39896 8.30208 8.33229 7.36875C9.26562 6.43542 10.4656 5.96875 11.9323 5.96875C13.399 5.96875 14.599 6.43542 15.5323 7.36875C16.4656 8.30208 16.9323 9.50208 16.9323 10.9688C16.9323 12.4354 16.4656 13.6354 15.5323 14.5688C14.599 15.5021 13.399 15.9688 11.9323 15.9688ZM23.9323 10.9688C23.9323 12.4354 23.4656 13.6354 22.5323 14.5688C21.599 15.5021 20.399 15.9688 18.9323 15.9688C18.6878 15.9688 18.4156 15.9521 18.1156 15.9188C17.8156 15.8854 17.5434 15.8243 17.299 15.7354C17.8323 15.1799 18.2378 14.4965 18.5156 13.6854C18.7934 12.8743 18.9323 11.9688 18.9323 10.9688C18.9323 9.96875 18.7934 9.08542 18.5156 8.31875C18.2378 7.55208 17.8323 6.84653 17.299 6.20208C17.5434 6.13542 17.8156 6.07986 18.1156 6.03542C18.4156 5.99097 18.6878 5.96875 18.9323 5.96875C20.399 5.96875 21.599 6.43542 22.5323 7.36875C23.4656 8.30208 23.9323 9.50208 23.9323 10.9688ZM3.26562 24.6688H20.599V23.5354C20.599 23.1799 20.4934 22.8354 20.2823 22.5021C20.0712 22.1688 19.8101 21.9354 19.499 21.8021C17.899 21.091 16.5545 20.6132 15.4656 20.3688C14.3767 20.1243 13.199 20.0021 11.9323 20.0021C10.6656 20.0021 9.48229 20.1243 8.38229 20.3688C7.28229 20.6132 5.93229 21.091 4.33229 21.8021C4.02118 21.9354 3.76563 22.1688 3.56563 22.5021C3.36563 22.8354 3.26562 23.1799 3.26562 23.5354V24.6688ZM11.9323 13.9688C12.799 13.9688 13.5156 13.6854 14.0823 13.1188C14.649 12.5521 14.9323 11.8354 14.9323 10.9688C14.9323 10.1021 14.649 9.38542 14.0823 8.81875C13.5156 8.25208 12.799 7.96875 11.9323 7.96875C11.0656 7.96875 10.349 8.25208 9.78229 8.81875C9.21563 9.38542 8.93229 10.1021 8.93229 10.9688C8.93229 11.8354 9.21563 12.5521 9.78229 13.1188C10.349 13.6854 11.0656 13.9688 11.9323 13.9688Z" fill="#999999"/>
</g>
</svg>
