<svg width="32" height="32" viewBox="0 0 32 32" fill="none" xmlns="http://www.w3.org/2000/svg">
<g id="DS Icons">
<path id="Vector" d="M15.832 27.3365C15.9431 27.3365 16.0709 27.3087 16.2154 27.2531C16.3598 27.1976 16.4765 27.1253 16.5654 27.0365L27.7987 15.7698C28.0876 15.4809 28.3043 15.1513 28.4487 14.7809C28.5931 14.4105 28.6654 14.0402 28.6654 13.6698C28.6654 13.292 28.5931 12.9142 28.4487 12.5365C28.3043 12.1587 28.0876 11.8253 27.7987 11.5365L21.7987 5.53646C21.5098 5.24757 21.1765 5.0309 20.7987 4.88646C20.4209 4.74201 20.0431 4.66979 19.6654 4.66979C19.295 4.66979 18.9246 4.74201 18.5543 4.88646C18.1839 5.0309 17.8543 5.24757 17.5654 5.53646L16.9654 6.13646L19.6654 8.86979C19.9543 9.1809 20.2098 9.54201 20.432 9.95312C20.6543 10.3642 20.7654 10.8142 20.7654 11.3031C20.7654 12.1476 20.4376 12.892 19.782 13.5365C19.1265 14.1809 18.3765 14.5031 17.532 14.5031C16.9765 14.5031 16.5154 14.4198 16.1487 14.2531C15.782 14.0865 15.4466 13.8493 15.1425 13.5418L12.6987 11.1031L6.66536 17.1365C6.55425 17.2476 6.47648 17.3645 6.43203 17.4873C6.38759 17.6101 6.36537 17.7417 6.36537 17.8821C6.36537 18.1628 6.45981 18.3976 6.6487 18.5865C6.83759 18.7753 7.07278 18.8698 7.35427 18.8698C7.495 18.8698 7.62648 18.8365 7.7487 18.7698C7.87092 18.7031 7.97648 18.6253 8.06536 18.5365L12.6654 13.9365L14.0654 15.3365L9.4987 19.9031C9.38759 20.0142 9.30981 20.1365 9.26537 20.2698C9.22092 20.4031 9.1987 20.5365 9.1987 20.6698C9.1987 20.9365 9.2987 21.1698 9.4987 21.3698C9.6987 21.5698 9.93203 21.6698 10.1987 21.6698C10.332 21.6698 10.4598 21.642 10.582 21.5865C10.7043 21.5309 10.8098 21.4587 10.8987 21.3698L15.4987 16.7698L16.8987 18.1698L12.332 22.7365C12.2431 22.8253 12.1709 22.9402 12.1154 23.0809C12.0598 23.2216 12.032 23.3624 12.032 23.5031C12.032 23.7698 12.132 24.0031 12.332 24.2031C12.532 24.4031 12.7654 24.5031 13.032 24.5031C13.1654 24.5031 13.2876 24.4809 13.3987 24.4365C13.5098 24.392 13.6209 24.3142 13.732 24.2031L18.332 19.6031L19.732 21.0031L15.132 25.6031C15.0209 25.7142 14.9431 25.8365 14.8987 25.9698C14.8543 26.1031 14.832 26.2253 14.832 26.3365C14.832 26.6476 14.9209 26.892 15.0987 27.0698C15.2765 27.2476 15.5209 27.3365 15.832 27.3365ZM15.8342 29.3365C15.0994 29.3365 14.4431 29.0642 13.8654 28.5198C13.2876 27.9753 12.9431 27.3018 12.832 26.4992C12.0765 26.3907 11.4431 26.0809 10.932 25.5698C10.4209 25.0587 10.1098 24.4253 9.9987 23.6698C9.24314 23.5587 8.61537 23.242 8.11537 22.7198C7.61537 22.1976 7.30981 21.5698 7.1987 20.8365C6.37648 20.7253 5.6987 20.392 5.16536 19.8365C4.63203 19.2809 4.36536 18.6142 4.36536 17.8365C4.36536 17.4587 4.44008 17.0804 4.5895 16.7015C4.73892 16.3226 4.9531 15.9898 5.23203 15.7031L12.6987 8.23646L16.3654 11.9031C16.5431 12.0809 16.7357 12.2198 16.9431 12.3198C17.1506 12.4198 17.358 12.4698 17.5654 12.4698C17.8543 12.4698 18.1265 12.342 18.382 12.0865C18.6376 11.8309 18.7654 11.557 18.7654 11.2647C18.7654 11.1347 18.7265 10.9865 18.6487 10.8198C18.5709 10.6531 18.4431 10.4809 18.2654 10.3031L13.4987 5.53646C13.2098 5.24757 12.8765 5.0309 12.4987 4.88646C12.1209 4.74201 11.7431 4.66979 11.3654 4.66979C10.995 4.66979 10.6246 4.74201 10.2543 4.88646C9.88389 5.0309 9.55491 5.24598 9.26733 5.53169L4.1987 10.6031C3.88759 10.9142 3.67092 11.242 3.5487 11.5865C3.42648 11.9309 3.35425 12.3198 3.33203 12.7531C3.30981 13.1865 3.39314 13.6087 3.58203 14.0198C3.77092 14.4309 3.9987 14.8031 4.26536 15.1365L2.83203 16.5698C2.38759 16.0809 2.02648 15.492 1.7487 14.8031C1.47092 14.1142 1.33203 13.4142 1.33203 12.7031C1.33203 12.0365 1.45981 11.3976 1.71536 10.7865C1.97092 10.1753 2.33203 9.63646 2.7987 9.16979L7.83203 4.13646C8.32092 3.64757 8.87418 3.28646 9.4918 3.05312C10.1094 2.81979 10.7428 2.70312 11.3918 2.70312C12.0408 2.70312 12.6709 2.81979 13.282 3.05312C13.8931 3.28646 14.4431 3.64757 14.932 4.13646L15.532 4.73646L16.132 4.13646C16.6209 3.64757 17.1742 3.28646 17.7918 3.05312C18.4094 2.81979 19.0428 2.70312 19.6918 2.70312C20.3408 2.70312 20.9709 2.81979 21.582 3.05312C22.1931 3.28646 22.7431 3.64757 23.232 4.13646L29.1987 10.1031C29.6876 10.592 30.0543 11.1479 30.2987 11.7709C30.5431 12.3938 30.6654 13.0272 30.6654 13.6709C30.6654 14.3146 30.5431 14.942 30.2987 15.5531C30.0543 16.1642 29.6876 16.7142 29.1987 17.2031L17.9654 28.4365C17.6765 28.7253 17.3483 28.9476 16.981 29.1031C16.6136 29.2587 16.2313 29.3365 15.8342 29.3365Z" fill="#999999"/>
</g>
</svg>
