<svg width="32" height="32" viewBox="0 0 32 32" fill="none" xmlns="http://www.w3.org/2000/svg">
<g id="DS Icons">
<path id="Vector" d="M17.0667 30.6661C16.7833 30.6661 16.5458 30.5698 16.3542 30.377C16.1625 30.1842 16.0667 29.9453 16.0667 29.6603C16.0667 29.3753 16.1625 29.1384 16.3542 28.9495C16.5458 28.7606 16.7833 28.6661 17.0667 28.6661H26V26.8661H23.0667C22.5167 26.8661 22.0458 26.6703 21.6542 26.2786C21.2625 25.887 21.0667 25.4161 21.0667 24.8661V18.9995C21.0667 18.4495 21.2625 17.9786 21.6542 17.587C22.0458 17.1953 22.5167 16.9995 23.0667 16.9995H26V14.7328C26 11.9773 25.0333 9.60503 23.1 7.61615C21.1667 5.62726 18.8222 4.63281 16.0667 4.63281C13.3111 4.63281 10.9444 5.62726 8.96667 7.61615C6.98889 9.60503 6 11.9773 6 14.7328V16.9995H8.93333C9.48333 16.9995 9.95417 17.1953 10.3458 17.587C10.7375 17.9786 10.9333 18.4495 10.9333 18.9995V24.8661C10.9333 25.4161 10.7375 25.887 10.3458 26.2786C9.95417 26.6703 9.48333 26.8661 8.93333 26.8661H6C5.46667 26.8661 5 26.6661 4.6 26.2661C4.2 25.8661 4 25.3995 4 24.8661V14.7328C4 13.0721 4.31667 11.5067 4.95 10.0368C5.58333 8.5668 6.44444 7.28198 7.53333 6.18231C8.62222 5.08265 9.90227 4.21615 11.3735 3.58281C12.8447 2.94948 14.4114 2.63281 16.0735 2.63281C17.7356 2.63281 19.2944 2.94948 20.75 3.58281C22.2056 4.21615 23.4672 5.08265 24.5351 6.18231C25.6029 7.28198 26.4473 8.5668 27.0684 10.0368C27.6895 11.5067 28 13.0721 28 14.7328V28.6661C28 29.1995 27.8 29.6661 27.4 30.0661C27 30.4661 26.5333 30.6661 26 30.6661H17.0667ZM6 24.8661H8.93333V18.9995H6V24.8661ZM23.0667 24.8661H26V18.9995H23.0667V24.8661Z" fill="#999999"/>
</g>
</svg>
