<svg width="32" height="32" viewBox="0 0 32 32" fill="none" xmlns="http://www.w3.org/2000/svg">
<g id="DS Icons">
<path id="Vector" d="M16.0022 7.53073C15.3337 7.53073 14.7606 7.29273 14.2829 6.81673C13.8051 6.34071 13.5662 5.76849 13.5662 5.10006C13.5662 4.43162 13.8042 3.85851 14.2802 3.38073C14.7562 2.90295 15.3284 2.66406 15.9969 2.66406C16.6653 2.66406 17.2384 2.90206 17.7162 3.37806C18.194 3.85408 18.4329 4.42631 18.4329 5.09473C18.4329 5.76317 18.1949 6.33628 17.7189 6.81406C17.2428 7.29184 16.6706 7.53073 16.0022 7.53073ZM26.9995 10.5641C25.8404 10.7991 24.6451 10.9968 23.4135 11.157C22.182 11.3173 20.8995 11.453 19.5662 11.5641V28.3641C19.5662 28.6307 19.4698 28.8585 19.277 29.0474C19.0842 29.2363 18.8453 29.3307 18.5604 29.3307C18.2754 29.3307 18.0384 29.2349 17.8495 29.0432C17.6606 28.8516 17.5662 28.6141 17.5662 28.3307V20.6641H14.4329V28.3641C14.4329 28.6307 14.3365 28.8585 14.1437 29.0474C13.9509 29.2363 13.712 29.3307 13.427 29.3307C13.142 29.3307 12.9051 29.2349 12.7162 29.0432C12.5273 28.8516 12.4329 28.6141 12.4329 28.3307V11.5641C11.0995 11.453 9.81708 11.3173 8.58552 11.157C7.35397 10.9968 6.15864 10.7991 4.99953 10.5641C4.72968 10.4994 4.52334 10.3499 4.38049 10.1156C4.23763 9.88123 4.19953 9.61962 4.26619 9.33073C4.33286 9.06406 4.48286 8.85295 4.71619 8.6974C4.94952 8.54184 5.21064 8.4974 5.49952 8.56406C7.21064 8.94184 8.92175 9.20295 10.6329 9.3474C12.344 9.49184 14.1329 9.56406 15.9995 9.56406C17.8662 9.56406 19.6551 9.49184 21.3662 9.3474C23.0773 9.20295 24.7884 8.94184 26.4995 8.56406C26.7884 8.4974 27.0551 8.53628 27.2995 8.68073C27.544 8.82517 27.6995 9.04184 27.7662 9.33073C27.8329 9.5974 27.7884 9.85295 27.6329 10.0974C27.4773 10.3418 27.2662 10.4974 26.9995 10.5641Z" fill="#999999"/>
</g>
</svg>
