<svg width="24" height="24" viewBox="0 0 24 24" fill="none" xmlns="http://www.w3.org/2000/svg">
<path d="M7.01811 18C6.7413 18 6.50241 17.8995 6.30145 17.6986C6.10048 17.4976 6 17.2587 6 16.9819V7.01811C6 6.7413 6.10048 6.50241 6.30145 6.30145C6.50241 6.10048 6.7413 6 7.01811 6H11.0593C11.2804 6 11.4597 6.17929 11.4597 6.40045C11.4597 6.62161 11.2804 6.8009 11.0593 6.8009H7.01811C6.96381 6.8009 6.91403 6.82352 6.86877 6.86877C6.82352 6.91403 6.8009 6.96381 6.8009 7.01811V16.9819C6.8009 17.0362 6.82352 17.086 6.86877 17.1312C6.91403 17.1765 6.96381 17.1991 7.01811 17.1991H16.9819C17.0362 17.1991 17.086 17.1765 17.1312 17.1312C17.1765 17.086 17.1991 17.0362 17.1991 16.9819V12.9407C17.1991 12.7196 17.3784 12.5403 17.5996 12.5403C17.8207 12.5403 18 12.7196 18 12.9407V16.9819C18 17.2587 17.8995 17.4976 17.6986 17.6986C17.4976 17.8995 17.2587 18 16.9819 18H7.01811ZM10.5991 13.9765C10.4406 14.135 10.1833 14.1337 10.0263 13.9737C9.8714 13.8159 9.8726 13.5627 10.029 13.4063L16.6344 6.8009H13.2855C13.0644 6.8009 12.8851 6.62161 12.8851 6.40045C12.8851 6.17929 13.0644 6 13.2855 6H18V10.7145C18 10.9356 17.8207 11.1149 17.5996 11.1149C17.3784 11.1149 17.1991 10.9356 17.1991 10.7145V7.37646L10.5991 13.9765Z" fill="#999999"/>
</svg>
