<svg width="32" height="32" viewBox="0 0 32 32" fill="none" xmlns="http://www.w3.org/2000/svg">
<g id="DS Icons">
<path id="Vector" d="M6 28C5.46667 28 5 27.8 4.6 27.4C4.2 27 4 26.5333 4 26V6C4 5.46667 4.2 5 4.6 4.6C5 4.2 5.46667 4 6 4H20.5667C20.8432 4 21.1068 4.05556 21.3574 4.16667C21.608 4.27778 21.8222 4.42222 22 4.6L27.4 10C27.5778 10.1778 27.7222 10.392 27.8333 10.6426C27.9444 10.8932 28 11.1568 28 11.4333V26C28 26.5333 27.8 27 27.4 27.4C27 27.8 26.5333 28 26 28H6ZM6 26H26V11.7H21.3C21.0167 11.7 20.7792 11.6042 20.5875 11.4125C20.3958 11.2208 20.3 10.9833 20.3 10.7V6H6V26ZM21.7 22.3C21.9833 22.3 22.2208 22.2036 22.4125 22.0108C22.6042 21.818 22.7 21.5791 22.7 21.2942C22.7 21.0092 22.6042 20.7722 22.4125 20.5833C22.2208 20.3944 21.9833 20.3 21.7 20.3H10.3C10.0167 20.3 9.77917 20.3964 9.5875 20.5892C9.39583 20.782 9.3 21.0209 9.3 21.3058C9.3 21.5908 9.39583 21.8278 9.5875 22.0167C9.77917 22.2056 10.0167 22.3 10.3 22.3H21.7ZM15 11.7C15.2833 11.7 15.5208 11.6036 15.7125 11.4108C15.9042 11.218 16 10.9791 16 10.6942C16 10.4092 15.9042 10.1722 15.7125 9.98333C15.5208 9.79444 15.2833 9.7 15 9.7H10.3C10.0167 9.7 9.77917 9.79639 9.5875 9.98917C9.39583 10.182 9.3 10.4209 9.3 10.7058C9.3 10.9908 9.39583 11.2278 9.5875 11.4167C9.77917 11.6056 10.0167 11.7 10.3 11.7H15ZM21.7 17C21.9833 17 22.2208 16.9036 22.4125 16.7108C22.6042 16.518 22.7 16.2791 22.7 15.9942C22.7 15.7092 22.6042 15.4722 22.4125 15.2833C22.2208 15.0944 21.9833 15 21.7 15H10.3C10.0167 15 9.77917 15.0964 9.5875 15.2892C9.39583 15.482 9.3 15.7209 9.3 16.0058C9.3 16.2908 9.39583 16.5278 9.5875 16.7167C9.77917 16.9056 10.0167 17 10.3 17H21.7Z" fill="#999999"/>
</g>
</svg>
