<svg width="24" height="24" viewBox="0 0 24 24" fill="none" xmlns="http://www.w3.org/2000/svg">
<g id="icon/instagram">
<path id="Subtract" fill-rule="evenodd" clip-rule="evenodd" d="M8.2896 3.054C9.2496 3.0102 9.5556 3 12 3C14.445 3 14.7504 3.0108 15.7098 3.054C16.668 3.0978 17.3232 3.2508 17.8956 3.4722C18.4959 3.69831 19.0397 4.05253 19.4892 4.5102C19.947 4.95979 20.3012 5.50384 20.5272 6.1044C20.7498 6.6768 20.9022 7.3314 20.946 8.2896C20.9898 9.2496 21 9.5556 21 12C21 14.4444 20.9898 14.7504 20.946 15.7104C20.9022 16.6686 20.7498 17.3232 20.5278 17.8956C20.3017 18.4959 19.9475 19.0397 19.4898 19.4892C19.0398 19.9476 18.4956 20.3016 17.8956 20.5272C17.3232 20.7498 16.6686 20.9022 15.7104 20.946C14.7504 20.9898 14.4444 21 12 21C9.5556 21 9.2496 20.9898 8.2896 20.946C7.3314 20.9022 6.6768 20.7498 6.1044 20.5278C5.50411 20.3017 4.96029 19.9475 4.5108 19.4898C4.0524 19.0398 3.6984 18.4956 3.4728 17.8956C3.2502 17.3232 3.0978 16.6686 3.054 15.7104C3.0102 14.7504 3 14.445 3 12C3 9.555 3.0108 9.2496 3.054 8.2902C3.0978 7.332 3.2508 6.6768 3.4722 6.1044C3.69831 5.5041 4.05253 4.96028 4.5102 4.5108C4.9602 4.0524 5.5044 3.6984 6.1044 3.4728C6.6768 3.2502 7.3314 3.0978 8.2896 3.054ZM10.8518 14.7732C11.2161 14.9241 11.6066 15.0018 12.001 15.0018C12.7974 15.0018 13.5613 14.6854 14.1244 14.1223C14.6876 13.5591 15.004 12.7953 15.004 11.9988C15.004 11.2024 14.6876 10.4385 14.1244 9.87537C13.5613 9.3122 12.7974 8.99581 12.001 8.99581C11.6066 8.99581 11.2161 9.07349 10.8518 9.2244C10.4875 9.37532 10.1564 9.59652 9.87756 9.87537C9.5987 10.1542 9.3775 10.4853 9.22659 10.8496C9.07567 11.214 8.998 11.6045 8.998 11.9988C8.998 12.3932 9.07567 12.7837 9.22659 13.148C9.3775 13.5124 9.5987 13.8434 9.87756 14.1223C10.1564 14.4011 10.4875 14.6223 10.8518 14.7732ZM8.72992 8.72774C9.59747 7.86019 10.7741 7.37281 12.001 7.37281C13.2279 7.37281 14.4045 7.86019 15.2721 8.72774C16.1396 9.59528 16.627 10.7719 16.627 11.9988C16.627 13.2257 16.1396 14.4023 15.2721 15.2699C14.4045 16.1374 13.2279 16.6248 12.001 16.6248C10.7741 16.6248 9.59747 16.1374 8.72992 15.2699C7.86238 14.4023 7.375 13.2257 7.375 11.9988C7.375 10.7719 7.86238 9.59528 8.72992 8.72774ZM17.6525 8.06203C17.8576 7.85696 17.9728 7.57883 17.9728 7.28881C17.9728 6.9988 17.8576 6.72066 17.6525 6.51559C17.4474 6.31052 17.1693 6.19531 16.8793 6.19531C16.5893 6.19531 16.3111 6.31052 16.1061 6.51559C15.901 6.72066 15.7858 6.9988 15.7858 7.28881C15.7858 7.57883 15.901 7.85696 16.1061 8.06203C16.3111 8.26711 16.5893 8.38231 16.8793 8.38231C17.1693 8.38231 17.4474 8.26711 17.6525 8.06203Z" fill="#DDDDDD"/>
</g>
</svg>
