<svg width="32" height="32" viewBox="0 0 32 32" fill="none" xmlns="http://www.w3.org/2000/svg">
<g id="DS Icons">
<path id="Vector" d="M8.06797 23.9682C7.77908 23.9682 7.54019 23.8738 7.3513 23.6849C7.16241 23.496 7.06797 23.2571 7.06797 22.9682V13.6349C7.06797 13.3682 7.16797 13.1405 7.36797 12.9516C7.56797 12.7627 7.8013 12.6682 8.06797 12.6682C8.35686 12.6682 8.59575 12.7627 8.78464 12.9516C8.97352 13.1405 9.06797 13.3793 9.06797 13.6682V23.0016C9.06797 23.2682 8.96797 23.496 8.76797 23.6849C8.56797 23.8738 8.33464 23.9682 8.06797 23.9682ZM16.1346 23.9682C15.8457 23.9682 15.6069 23.8738 15.418 23.6849C15.2291 23.496 15.1346 23.2571 15.1346 22.9682V13.6349C15.1346 13.3682 15.2346 13.1405 15.4346 12.9516C15.6346 12.7627 15.868 12.6682 16.1346 12.6682C16.4235 12.6682 16.6624 12.7627 16.8513 12.9516C17.0402 13.1405 17.1346 13.3793 17.1346 13.6682V23.0016C17.1346 23.2682 17.0346 23.496 16.8346 23.6849C16.6346 23.8738 16.4013 23.9682 16.1346 23.9682ZM3.63464 27.9682C3.36797 27.9682 3.14019 27.8682 2.9513 27.6682C2.76241 27.4682 2.66797 27.2349 2.66797 26.9682C2.66797 26.6793 2.76241 26.4405 2.9513 26.2516C3.14019 26.0627 3.37908 25.9682 3.66797 25.9682H28.368C28.6346 25.9682 28.8624 26.0682 29.0513 26.2682C29.2402 26.4682 29.3346 26.7016 29.3346 26.9682C29.3346 27.2571 29.2402 27.496 29.0513 27.6849C28.8624 27.8738 28.6235 27.9682 28.3346 27.9682H3.63464ZM23.9346 23.9682C23.6457 23.9682 23.4069 23.8738 23.218 23.6849C23.0291 23.496 22.9346 23.2571 22.9346 22.9682V13.6349C22.9346 13.3682 23.0346 13.1405 23.2346 12.9516C23.4346 12.7627 23.668 12.6682 23.9346 12.6682C24.2235 12.6682 24.4624 12.7627 24.6513 12.9516C24.8402 13.1405 24.9346 13.3793 24.9346 13.6682V23.0016C24.9346 23.2682 24.8346 23.496 24.6346 23.6849C24.4346 23.8738 24.2013 23.9682 23.9346 23.9682ZM17.0013 1.86823L28.6013 8.46823C28.8235 8.57934 29.0013 8.74045 29.1346 8.95156C29.268 9.16267 29.3346 9.39045 29.3346 9.6349C29.3346 9.94601 29.2124 10.196 28.968 10.3849C28.7235 10.5738 28.4457 10.6682 28.1346 10.6682H3.86797C3.55686 10.6682 3.27908 10.5738 3.03464 10.3849C2.79019 10.196 2.66797 9.94601 2.66797 9.6349C2.66797 9.39045 2.74019 9.16823 2.88464 8.96823C3.02908 8.76823 3.21241 8.60156 3.43464 8.46823L15.0013 1.86823C15.3124 1.69045 15.6457 1.60156 16.0013 1.60156C16.3569 1.60156 16.6902 1.69045 17.0013 1.86823ZM7.13463 8.66823H24.868L16.0013 3.60156L7.13463 8.66823Z" fill="#999999"/>
</g>
</svg>
