<svg width="48" height="48" viewBox="0 0 48 48" fill="none" xmlns="http://www.w3.org/2000/svg">
<g id="Testimonial/Style3">
<path id="&#226;&#128;&#156;" d="M10.2688 21.6962C8.42171 21.6962 7.49816 20.7727 7.49816 18.9256V11.414C7.49816 9.56684 8.42171 8.64328 10.2688 8.64328H17.411C19.2581 8.64328 20.1817 9.56684 20.1817 11.414V18.9256C20.1817 23.2355 19.7302 26.9913 18.8271 30.193C17.8831 33.4357 16.0565 36.268 13.3474 38.6897C12.4443 39.4696 11.685 39.5722 11.0693 38.9976L8.29858 36.4116C7.68287 35.837 7.82653 35.1392 8.72957 34.3182C10.1252 33.0868 11.2745 31.3013 12.1775 28.9616C13.0395 26.6629 13.4705 24.2412 13.4705 21.6962H10.2688ZM30.5871 21.6962C28.74 21.6962 27.8165 20.7727 27.8165 18.9256L27.8165 11.414C27.8165 9.56684 28.74 8.64328 30.5871 8.64328H37.7293C39.5764 8.64328 40.5 9.56684 40.5 11.414V18.9256C40.5 23.2355 40.0485 26.9913 39.1454 30.193C38.2014 33.4357 36.3748 36.268 33.6657 38.6897C32.7626 39.4696 32.0033 39.5722 31.3876 38.9976L28.6169 36.4116C28.0012 35.837 28.1448 35.1392 29.0479 34.3182C30.4435 33.0868 31.5928 31.3013 32.4958 28.9616C33.3578 26.6629 33.7888 24.2412 33.7888 21.6962H30.5871Z" fill="#273237"/>
</g>
</svg>
