<svg width="24" height="24" viewBox="0 0 24 24" fill="none" xmlns="http://www.w3.org/2000/svg">
<path d="M3.8173 17.6364C3.65655 17.6364 3.52182 17.5815 3.4131 17.4719C3.30437 17.3622 3.25 17.2263 3.25 17.0642C3.25 16.9021 3.30437 16.7678 3.4131 16.6614C3.52182 16.555 3.65655 16.5018 3.8173 16.5018H20.1827C20.3434 16.5018 20.4781 16.5566 20.5869 16.6663C20.6956 16.776 20.75 16.9118 20.75 17.074C20.75 17.2361 20.6956 17.3704 20.5869 17.4768C20.4781 17.5832 20.3434 17.6364 20.1827 17.6364H3.8173ZM3.8173 12.5691C3.65655 12.5691 3.52182 12.5143 3.4131 12.4046C3.30437 12.2949 3.25 12.159 3.25 11.9969C3.25 11.8348 3.30437 11.7005 3.4131 11.5941C3.52182 11.4877 3.65655 11.4345 3.8173 11.4345H20.1827C20.3434 11.4345 20.4781 11.4893 20.5869 11.599C20.6956 11.7087 20.75 11.8446 20.75 12.0067C20.75 12.1688 20.6956 12.3031 20.5869 12.4095C20.4781 12.5159 20.3434 12.5691 20.1827 12.5691H3.8173ZM3.8173 7.50179C3.65655 7.50179 3.52182 7.44695 3.4131 7.33729C3.30437 7.22762 3.25 7.09173 3.25 6.92961C3.25 6.76748 3.30437 6.63321 3.4131 6.52681C3.52182 6.42039 3.65655 6.36719 3.8173 6.36719H20.1827C20.3434 6.36719 20.4781 6.42203 20.5869 6.53171C20.6956 6.64138 20.75 6.77727 20.75 6.93939C20.75 7.1015 20.6956 7.23577 20.5869 7.34219C20.4781 7.44859 20.3434 7.50179 20.1827 7.50179H3.8173Z" fill="white"/>
</svg>
