<svg width="32" height="32" viewBox="0 0 32 32" fill="none" xmlns="http://www.w3.org/2000/svg">
<g id="DS Icons">
<path id="Vector" d="M15.9946 27.1315C15.7756 27.1315 15.562 27.0933 15.3536 27.0168C15.1453 26.9403 14.9495 26.8341 14.7661 26.6982L5.03281 19.1315C4.76615 18.9328 4.63837 18.672 4.64948 18.3491C4.66059 18.0263 4.80031 17.7648 5.06865 17.5648C5.25313 17.4315 5.4544 17.3648 5.67245 17.3648C5.89047 17.3648 6.08837 17.4315 6.26615 17.5648L15.9995 25.1315L25.7328 17.5648C25.9178 17.4315 26.1196 17.3648 26.3382 17.3648C26.5568 17.3648 26.7578 17.4311 26.9411 17.5637C27.2078 17.7626 27.3453 18.0236 27.3536 18.3468C27.362 18.6699 27.2328 18.9315 26.9661 19.1315L17.2328 26.6982C17.0475 26.8341 16.8496 26.9403 16.639 27.0168C16.4284 27.0933 16.2136 27.1315 15.9946 27.1315ZM15.9946 22.0648C15.7756 22.0648 15.562 22.0266 15.3536 21.9501C15.1453 21.8737 14.9495 21.7675 14.7661 21.6315L4.99948 14.0648C4.86615 13.9537 4.7717 13.8292 4.71615 13.6911C4.66059 13.5531 4.63281 13.411 4.63281 13.2648C4.63281 13.1187 4.66059 12.9766 4.71615 12.8386C4.7717 12.7005 4.86615 12.576 4.99948 12.4648L14.7661 4.89818C14.9515 4.76222 15.1494 4.65601 15.36 4.57954C15.5705 4.50308 15.7853 4.46484 16.0043 4.46484C16.2233 4.46484 16.437 4.50308 16.6453 4.57954C16.8536 4.65601 17.0495 4.76222 17.2328 4.89818L26.9995 12.4648C27.1328 12.576 27.2273 12.7005 27.2828 12.8386C27.3384 12.9766 27.3661 13.1187 27.3661 13.2648C27.3661 13.411 27.3384 13.5531 27.2828 13.6911C27.2273 13.8292 27.1328 13.9537 26.9995 14.0648L17.2328 21.6315C17.0475 21.7675 16.8496 21.8737 16.639 21.9501C16.4284 22.0266 16.2136 22.0648 15.9946 22.0648ZM15.9995 20.0648L24.7328 13.2648L15.9995 6.46484L7.26615 13.2648L15.9995 20.0648Z" fill="#999999"/>
</g>
</svg>
