<svg width="32" height="32" viewBox="0 0 32 32" fill="none" xmlns="http://www.w3.org/2000/svg">
<g id="DS Icons">
<path id="Vector" d="M12.4346 18.0013H17.9346C18.218 18.0013 18.4555 17.9049 18.6471 17.7121C18.8388 17.5193 18.9346 17.2804 18.9346 16.9955C18.9346 16.7105 18.8388 16.4735 18.6471 16.2846C18.4555 16.0957 18.218 16.0013 17.9346 16.0013H12.4346C12.1513 16.0013 11.9138 16.0977 11.7221 16.2905C11.5305 16.4833 11.4346 16.7222 11.4346 17.0071C11.4346 17.2921 11.5305 17.5291 11.7221 17.718C11.9138 17.9069 12.1513 18.0013 12.4346 18.0013ZM12.4346 15.0013H23.6013C23.8846 15.0013 24.1221 14.9049 24.3138 14.7121C24.5055 14.5193 24.6013 14.2804 24.6013 13.9955C24.6013 13.7105 24.5055 13.4735 24.3138 13.2846C24.1221 13.0957 23.8846 13.0013 23.6013 13.0013H12.4346C12.1513 13.0013 11.9138 13.0977 11.7221 13.2905C11.5305 13.4833 11.4346 13.7222 11.4346 14.0071C11.4346 14.2921 11.5305 14.5291 11.7221 14.718C11.9138 14.9069 12.1513 15.0013 12.4346 15.0013ZM12.4346 12.0013H23.6013C23.8846 12.0013 24.1221 11.9049 24.3138 11.7121C24.5055 11.5193 24.6013 11.2804 24.6013 10.9955C24.6013 10.7105 24.5055 10.4735 24.3138 10.2846C24.1221 10.0957 23.8846 10.0013 23.6013 10.0013H12.4346C12.1513 10.0013 11.9138 10.0977 11.7221 10.2905C11.5305 10.4833 11.4346 10.7222 11.4346 11.0071C11.4346 11.2921 11.5305 11.5291 11.7221 11.718C11.9138 11.9069 12.1513 12.0013 12.4346 12.0013ZM8.66797 25.3346C8.13463 25.3346 7.66797 25.1346 7.26797 24.7346C6.86797 24.3346 6.66797 23.868 6.66797 23.3346V4.66797C6.66797 4.13464 6.86797 3.66797 7.26797 3.26797C7.66797 2.86797 8.13463 2.66797 8.66797 2.66797H27.3346C27.868 2.66797 28.3346 2.86797 28.7346 3.26797C29.1346 3.66797 29.3346 4.13464 29.3346 4.66797V23.3346C29.3346 23.868 29.1346 24.3346 28.7346 24.7346C28.3346 25.1346 27.868 25.3346 27.3346 25.3346H8.66797ZM8.66797 23.3346H27.3346V4.66797H8.66797V23.3346ZM4.66797 29.3346C4.13464 29.3346 3.66797 29.1346 3.26797 28.7346C2.86797 28.3346 2.66797 27.868 2.66797 27.3346V7.66797C2.66797 7.38463 2.76436 7.14714 2.95714 6.95547C3.14994 6.7638 3.38882 6.66797 3.6738 6.66797C3.9588 6.66797 4.19575 6.7638 4.38464 6.95547C4.57352 7.14714 4.66797 7.38463 4.66797 7.66797V27.3346H24.3346C24.618 27.3346 24.8555 27.431 25.0471 27.6238C25.2388 27.8166 25.3346 28.0555 25.3346 28.3405C25.3346 28.6255 25.2388 28.8624 25.0471 29.0513C24.8555 29.2402 24.618 29.3346 24.3346 29.3346H4.66797Z" fill="#999999"/>
</g>
</svg>
