<svg width="32" height="32" viewBox="0 0 32 32" fill="none" xmlns="http://www.w3.org/2000/svg">
<g id="DS Icons">
<path id="Vector" d="M14.8667 18.068L14.9333 19.068C14.9497 19.2062 15.0029 19.3186 15.0928 19.405C15.1828 19.4914 15.2932 19.5346 15.4241 19.5346H16.5037C16.6346 19.5346 16.7458 19.4914 16.8375 19.405C16.9292 19.3186 16.9833 19.2062 17 19.068L17.0667 18.068C17.3333 18.0235 17.583 17.9295 17.8157 17.7859C18.0484 17.6423 18.2543 17.4808 18.4333 17.3013L19.4333 17.6346C19.5444 17.6791 19.6556 17.6791 19.7667 17.6346C19.8778 17.5902 19.9644 17.5141 20.0267 17.4064L20.54 16.5295C20.6022 16.4218 20.6278 16.3124 20.6167 16.2013C20.6056 16.0902 20.5479 15.9883 20.4437 15.8957L19.7667 15.368C19.8778 15.0569 19.9333 14.7346 19.9333 14.4013C19.9333 14.068 19.8778 13.7457 19.7667 13.4346L20.4437 12.9069C20.5479 12.8143 20.6056 12.7124 20.6167 12.6013C20.6278 12.4902 20.6022 12.3808 20.54 12.2731L20.0267 11.3962C19.9644 11.2885 19.8778 11.2124 19.7667 11.168C19.6556 11.1235 19.5444 11.1235 19.4333 11.168L18.4333 11.5013C18.2482 11.3304 18.0352 11.1765 17.7944 11.0398C17.5537 10.903 17.3111 10.8013 17.0667 10.7346L17 9.73463C16.9836 9.59637 16.9305 9.48402 16.8405 9.3976C16.7505 9.31118 16.6401 9.26797 16.5093 9.26797H15.4296C15.2988 9.26797 15.1875 9.31118 15.0958 9.3976C15.0042 9.48402 14.95 9.59637 14.9333 9.73463L14.8667 10.7346C14.6222 10.8013 14.3796 10.903 14.1389 11.0398C13.8981 11.1765 13.6852 11.3304 13.5 11.5013L12.5 11.168C12.3889 11.1235 12.2778 11.1235 12.1667 11.168C12.0556 11.2124 11.9689 11.2885 11.9067 11.3962L11.3933 12.2731C11.3311 12.3808 11.3056 12.4902 11.3167 12.6013C11.3278 12.7124 11.3854 12.8143 11.4896 12.9069L12.1667 13.4346C12.0556 13.7457 12 14.068 12 14.4013C12 14.7346 12.0556 15.0569 12.1667 15.368L11.4896 15.8957C11.3854 15.9883 11.3278 16.0902 11.3167 16.2013C11.3056 16.3124 11.3311 16.4218 11.3933 16.5295L11.9067 17.4064C11.9689 17.5141 12.0556 17.5902 12.1667 17.6346C12.2778 17.6791 12.3889 17.6791 12.5 17.6346L13.5 17.3013C13.679 17.4808 13.8849 17.6423 14.1176 17.7859C14.3503 17.9295 14.6 18.0235 14.8667 18.068ZM15.9706 16.7346C15.3235 16.7346 14.7722 16.5082 14.3167 16.0552C13.8611 15.6023 13.6333 15.0523 13.6333 14.4052C13.6333 13.7582 13.8598 13.2069 14.3127 12.7513C14.7657 12.2957 15.3157 12.068 15.9627 12.068C16.6098 12.068 17.1611 12.2944 17.6167 12.7474C18.0722 13.2003 18.3 13.7503 18.3 14.3974C18.3 15.0444 18.0735 15.5957 17.6206 16.0513C17.1676 16.5069 16.6176 16.7346 15.9706 16.7346ZM8 23.6013C6.73333 22.4457 5.75 21.0957 5.05 19.5513C4.35 18.0069 4 16.3791 4 14.668C4 11.3346 5.16667 8.5013 7.5 6.16797C9.83333 3.83464 12.6667 2.66797 16 2.66797C18.7778 2.66797 21.2389 3.48464 23.3833 5.11797C25.5278 6.7513 26.9222 8.87908 27.5667 11.5013L29.4 18.768C29.4889 19.0791 29.4333 19.3624 29.2333 19.618C29.0333 19.8735 28.7667 20.0013 28.4333 20.0013H25.3333V24.668C25.3333 25.218 25.1375 25.6888 24.7458 26.0805C24.3542 26.4721 23.8833 26.668 23.3333 26.668H20V28.3346C20 28.618 19.9036 28.8555 19.7108 29.0471C19.518 29.2388 19.2791 29.3346 18.9942 29.3346C18.7092 29.3346 18.4722 29.2388 18.2833 29.0471C18.0944 28.8555 18 28.618 18 28.3346V25.668C18 25.3846 18.0958 25.1471 18.2875 24.9555C18.4792 24.7638 18.7167 24.668 19 24.668H23.3333V19.0013C23.3333 18.718 23.4292 18.4805 23.6208 18.2888C23.8125 18.0971 24.05 18.0013 24.3333 18.0013H27.1333L25.6333 12.0013C25.1 9.84575 23.9333 8.08464 22.1333 6.71797C20.3333 5.3513 18.2889 4.66797 16 4.66797C13.2222 4.66797 10.8611 5.62908 8.91667 7.5513C6.97222 9.47352 6 11.8184 6 14.586C6 16.0175 6.29249 17.3774 6.87747 18.6657C7.46247 19.9541 8.2922 21.0993 9.36667 22.1013L10 22.7013V28.3346C10 28.618 9.90361 28.8555 9.71083 29.0471C9.51803 29.2388 9.27915 29.3346 8.99417 29.3346C8.70917 29.3346 8.47222 29.2388 8.28333 29.0471C8.09444 28.8555 8 28.618 8 28.3346V23.6013Z" fill="#999999"/>
</g>
</svg>
