<svg width="100%" height="100%" viewBox="0 0 45 42" fill="none" xmlns="http://www.w3.org/2000/svg">
<path d="M41.3063 24.0756C43.7691 24.0756 45.0005 25.307 45.0005 27.7698V37.7853C45.0005 40.2481 43.7691 41.4795 41.3063 41.4795H31.7833C29.3205 41.4795 28.0891 40.2481 28.0891 37.7853V27.7698C28.0891 22.0232 28.6911 17.0155 29.8952 12.7466C31.154 8.42296 33.5894 4.64663 37.2016 1.41759C38.4056 0.377732 39.4181 0.240909 40.239 1.00712L43.9333 4.45508C44.7542 5.22129 44.5627 6.15169 43.3586 7.24628C41.4978 8.88816 39.9654 11.2689 38.7613 14.3885C37.612 17.4533 37.0374 20.6824 37.0374 24.0756H41.3063ZM14.2152 24.0756C16.678 24.0756 17.9094 25.307 17.9094 27.7698V37.7853C17.9094 40.2481 16.678 41.4795 14.2152 41.4795H4.69228C2.22946 41.4795 0.998047 40.2481 0.998047 37.7853V27.7698C0.998047 22.0232 1.60007 17.0155 2.80412 12.7466C4.06289 8.42296 6.49835 4.64663 10.1105 1.41759C11.3145 0.377732 12.327 0.240909 13.148 1.00712L16.8422 4.45508C17.6632 5.22129 17.4716 6.15169 16.2676 7.24628C14.4068 8.88816 12.8743 11.2689 11.6703 14.3885C10.521 17.4533 9.94631 20.6824 9.94631 24.0756H14.2152Z" fill="#273237"/>
</svg>
