<svg width="32" height="32" viewBox="0 0 32 32" fill="none" xmlns="http://www.w3.org/2000/svg">
<g id="DS Icons">
<path id="Vector" d="M12.9013 21.3346C13.5902 21.3346 14.168 21.0966 14.6346 20.6206C15.1013 20.1446 15.3346 19.5724 15.3346 18.904C15.3346 18.2355 15.1013 17.6624 14.6346 17.1846C14.168 16.7069 13.5957 16.468 12.918 16.468C12.2402 16.468 11.6624 16.706 11.1846 17.182C10.7069 17.658 10.468 18.2302 10.468 18.8986C10.468 19.5671 10.7062 20.1402 11.1828 20.618C11.6593 21.0957 12.2321 21.3346 12.9013 21.3346ZM19.0986 21.3346C19.7671 21.3346 20.3402 21.0966 20.818 20.6206C21.2957 20.1446 21.5346 19.5724 21.5346 18.904C21.5346 18.2355 21.2966 17.6624 20.8206 17.1846C20.3446 16.7069 19.7724 16.468 19.104 16.468C18.4355 16.468 17.8624 16.706 17.3846 17.182C16.9069 17.658 16.668 18.2302 16.668 18.8986C16.668 19.5671 16.906 20.1402 17.382 20.618C17.858 21.0957 18.4302 21.3346 19.0986 21.3346ZM15.9986 15.1013C16.6671 15.1013 17.2402 14.868 17.718 14.4013C18.1957 13.9346 18.4346 13.3624 18.4346 12.6846C18.4346 12.0069 18.1966 11.4291 17.7206 10.9513C17.2446 10.4735 16.6724 10.2346 16.004 10.2346C15.3355 10.2346 14.7624 10.4729 14.2846 10.9494C13.8069 11.426 13.568 11.9988 13.568 12.668C13.568 13.3569 13.806 13.9346 14.282 14.4013C14.758 14.868 15.3302 15.1013 15.9986 15.1013ZM16.0102 29.3346C14.1716 29.3346 12.4439 28.9846 10.8268 28.2846C9.20981 27.5846 7.79575 26.6291 6.58464 25.418C5.37352 24.2069 4.41797 22.792 3.71797 21.1733C3.01797 19.5546 2.66797 17.8251 2.66797 15.9846C2.66797 14.1442 3.01797 12.4147 3.71797 10.796C4.41797 9.17731 5.37352 7.76797 6.58464 6.56797C7.79575 5.36797 9.21065 4.41797 10.8293 3.71797C12.448 3.01797 14.1775 2.66797 16.018 2.66797C17.8584 2.66797 19.5879 3.01797 21.2066 3.71797C22.8253 4.41797 24.2346 5.36797 25.4346 6.56797C26.6346 7.76797 27.5846 9.17908 28.2846 10.8013C28.9846 12.4235 29.3346 14.1539 29.3346 15.9924C29.3346 17.831 28.9846 19.5587 28.2846 21.1758C27.5846 22.7928 26.6346 24.2048 25.4346 25.4118C24.2346 26.6189 22.8235 27.5744 21.2013 28.2785C19.5791 28.9826 17.8487 29.3346 16.0102 29.3346ZM16.018 27.3346C19.1624 27.3346 21.8346 26.2291 24.0346 24.018C26.2346 21.8069 27.3346 19.1291 27.3346 15.9846C27.3346 12.8402 26.2367 10.168 24.0409 7.96797C21.8451 5.76797 19.1652 4.66797 16.0013 4.66797C12.868 4.66797 10.1957 5.76588 7.98463 7.9617C5.77352 10.1575 4.66797 12.8374 4.66797 16.0013C4.66797 19.1346 5.77352 21.8069 7.98463 24.018C10.1957 26.2291 12.8735 27.3346 16.018 27.3346Z" fill="#999999"/>
</g>
</svg>
