<svg width="32" height="32" viewBox="0 0 32 32" fill="none" xmlns="http://www.w3.org/2000/svg">
<g id="DS Icons">
<path id="Vector" d="M6.46641 17.0342L9.56641 20.1009C9.76641 20.3009 9.86641 20.5342 9.86641 20.8009C9.86641 21.0675 9.76641 21.3009 9.56641 21.5009C9.36641 21.7009 9.12752 21.8009 8.84974 21.8009C8.57196 21.8009 8.33307 21.7009 8.13307 21.5009L3.36641 16.7342C3.2553 16.6231 3.17752 16.512 3.13307 16.4009C3.08863 16.2898 3.06641 16.1675 3.06641 16.0342C3.06641 15.9009 3.08863 15.7787 3.13307 15.6675C3.17752 15.5564 3.2553 15.4453 3.36641 15.3342L8.16641 10.5342C8.36641 10.3342 8.59974 10.2398 8.86641 10.2509C9.13307 10.262 9.36641 10.3675 9.56641 10.5675C9.76641 10.7675 9.86641 11.0009 9.86641 11.2675C9.86641 11.5342 9.76641 11.7675 9.56641 11.9675L6.49974 15.0009H25.4664L22.3997 11.9675C22.1997 11.7675 22.0997 11.5342 22.0997 11.2675C22.0997 11.0009 22.1997 10.7675 22.3997 10.5675C22.5997 10.3675 22.8386 10.2675 23.1164 10.2675C23.3942 10.2675 23.6331 10.3675 23.8331 10.5675L28.5997 15.3342C28.7109 15.4453 28.7886 15.5564 28.8331 15.6675C28.8775 15.7787 28.8997 15.9009 28.8997 16.0342C28.8997 16.1675 28.8775 16.2898 28.8331 16.4009C28.7886 16.512 28.7109 16.6231 28.5997 16.7342L23.7997 21.5342C23.5997 21.7342 23.3664 21.8342 23.0997 21.8342C22.8331 21.8342 22.5997 21.7342 22.3997 21.5342C22.1997 21.3342 22.0997 21.0953 22.0997 20.8175C22.0997 20.5398 22.1997 20.3009 22.3997 20.1009L25.4664 17.0342H6.46641Z" fill="#999999"/>
</g>
</svg>
