<svg width="32" height="32" viewBox="0 0 32 32" fill="none" xmlns="http://www.w3.org/2000/svg">
<g id="DS Icons">
<path id="Vector" d="M7.53203 26.6654C6.90981 26.6654 6.38759 26.4543 5.96536 26.032C5.54314 25.6098 5.33203 25.0876 5.33203 24.4654C5.33203 23.8431 5.54314 23.3209 5.96536 22.8987C6.38759 22.4765 6.90981 22.2654 7.53203 22.2654C8.15425 22.2654 8.67648 22.4765 9.0987 22.8987C9.52092 23.3209 9.73203 23.8431 9.73203 24.4654C9.73203 25.0876 9.52092 25.6098 9.0987 26.032C8.67648 26.4543 8.15425 26.6654 7.53203 26.6654ZM15.9987 26.6654C15.3765 26.6654 14.8543 26.4543 14.432 26.032C14.0098 25.6098 13.7987 25.0876 13.7987 24.4654C13.7987 23.8431 14.0098 23.3209 14.432 22.8987C14.8543 22.4765 15.3765 22.2654 15.9987 22.2654C16.6209 22.2654 17.1431 22.4765 17.5654 22.8987C17.9876 23.3209 18.1987 23.8431 18.1987 24.4654C18.1987 25.0876 17.9876 25.6098 17.5654 26.032C17.1431 26.4543 16.6209 26.6654 15.9987 26.6654ZM24.4654 26.6654C23.8431 26.6654 23.3209 26.4543 22.8987 26.032C22.4765 25.6098 22.2654 25.0876 22.2654 24.4654C22.2654 23.8431 22.4765 23.3209 22.8987 22.8987C23.3209 22.4765 23.8431 22.2654 24.4654 22.2654C25.0876 22.2654 25.6098 22.4765 26.032 22.8987C26.4543 23.3209 26.6654 23.8431 26.6654 24.4654C26.6654 25.0876 26.4543 25.6098 26.032 26.032C25.6098 26.4543 25.0876 26.6654 24.4654 26.6654ZM7.53203 18.1987C6.90981 18.1987 6.38759 17.9876 5.96536 17.5654C5.54314 17.1431 5.33203 16.6209 5.33203 15.9987C5.33203 15.3765 5.54314 14.8543 5.96536 14.432C6.38759 14.0098 6.90981 13.7987 7.53203 13.7987C8.15425 13.7987 8.67648 14.0098 9.0987 14.432C9.52092 14.8543 9.73203 15.3765 9.73203 15.9987C9.73203 16.6209 9.52092 17.1431 9.0987 17.5654C8.67648 17.9876 8.15425 18.1987 7.53203 18.1987ZM15.9987 18.1987C15.3765 18.1987 14.8543 17.9876 14.432 17.5654C14.0098 17.1431 13.7987 16.6209 13.7987 15.9987C13.7987 15.3765 14.0098 14.8543 14.432 14.432C14.8543 14.0098 15.3765 13.7987 15.9987 13.7987C16.6209 13.7987 17.1431 14.0098 17.5654 14.432C17.9876 14.8543 18.1987 15.3765 18.1987 15.9987C18.1987 16.6209 17.9876 17.1431 17.5654 17.5654C17.1431 17.9876 16.6209 18.1987 15.9987 18.1987ZM24.4654 18.1987C23.8431 18.1987 23.3209 17.9876 22.8987 17.5654C22.4765 17.1431 22.2654 16.6209 22.2654 15.9987C22.2654 15.3765 22.4765 14.8543 22.8987 14.432C23.3209 14.0098 23.8431 13.7987 24.4654 13.7987C25.0876 13.7987 25.6098 14.0098 26.032 14.432C26.4543 14.8543 26.6654 15.3765 26.6654 15.9987C26.6654 16.6209 26.4543 17.1431 26.032 17.5654C25.6098 17.9876 25.0876 18.1987 24.4654 18.1987ZM7.53203 9.73203C6.90981 9.73203 6.38759 9.52092 5.96536 9.0987C5.54314 8.67648 5.33203 8.15425 5.33203 7.53203C5.33203 6.90981 5.54314 6.38759 5.96536 5.96536C6.38759 5.54314 6.90981 5.33203 7.53203 5.33203C8.15425 5.33203 8.67648 5.54314 9.0987 5.96536C9.52092 6.38759 9.73203 6.90981 9.73203 7.53203C9.73203 8.15425 9.52092 8.67648 9.0987 9.0987C8.67648 9.52092 8.15425 9.73203 7.53203 9.73203ZM15.9987 9.73203C15.3765 9.73203 14.8543 9.52092 14.432 9.0987C14.0098 8.67648 13.7987 8.15425 13.7987 7.53203C13.7987 6.90981 14.0098 6.38759 14.432 5.96536C14.8543 5.54314 15.3765 5.33203 15.9987 5.33203C16.6209 5.33203 17.1431 5.54314 17.5654 5.96536C17.9876 6.38759 18.1987 6.90981 18.1987 7.53203C18.1987 8.15425 17.9876 8.67648 17.5654 9.0987C17.1431 9.52092 16.6209 9.73203 15.9987 9.73203ZM24.4654 9.73203C23.8431 9.73203 23.3209 9.52092 22.8987 9.0987C22.4765 8.67648 22.2654 8.15425 22.2654 7.53203C22.2654 6.90981 22.4765 6.38759 22.8987 5.96536C23.3209 5.54314 23.8431 5.33203 24.4654 5.33203C25.0876 5.33203 25.6098 5.54314 26.032 5.96536C26.4543 6.38759 26.6654 6.90981 26.6654 7.53203C26.6654 8.15425 26.4543 8.67648 26.032 9.0987C25.6098 9.52092 25.0876 9.73203 24.4654 9.73203Z" fill="#999999"/>
</g>
</svg>
