<svg width="32" height="32" viewBox="0 0 32 32" fill="none" xmlns="http://www.w3.org/2000/svg">
<g id="DS Icons">
<path id="Vector" d="M15.9956 8.93073C15.7106 8.93073 15.4736 8.8349 15.2847 8.64323C15.0958 8.45156 15.0014 8.21406 15.0014 7.93073V3.66406C15.0014 3.38073 15.0978 3.14323 15.2906 2.95156C15.4834 2.7599 15.7223 2.66406 16.0072 2.66406C16.2922 2.66406 16.5292 2.7599 16.7181 2.95156C16.907 3.14323 17.0014 3.38073 17.0014 3.66406V7.93073C17.0014 8.21406 16.905 8.45156 16.7122 8.64323C16.5194 8.8349 16.2805 8.93073 15.9956 8.93073ZM22.9217 11.9307C22.7304 11.7307 22.6403 11.4863 22.6514 11.1974C22.6625 10.9085 22.7681 10.6641 22.9681 10.4641L25.9347 7.56406C26.1347 7.36406 26.3792 7.26406 26.6681 7.26406C26.957 7.26406 27.1903 7.37517 27.3681 7.5974C27.5458 7.7974 27.6292 8.03073 27.6181 8.2974C27.607 8.56406 27.5125 8.78628 27.3347 8.96406L24.4014 11.9307C24.2014 12.1307 23.957 12.2307 23.6681 12.2307C23.3792 12.2307 23.1304 12.1307 22.9217 11.9307ZM9.13473 11.8974C8.95695 12.1196 8.72918 12.2307 8.4514 12.2307C8.17362 12.2307 7.93473 12.1307 7.73473 11.9307L4.73473 8.9974C4.53473 8.7974 4.42918 8.55851 4.41806 8.28073C4.40695 8.00295 4.49705 7.76406 4.68836 7.56406C4.89705 7.36406 5.14584 7.26406 5.43473 7.26406C5.72362 7.26406 5.96806 7.36406 6.16806 7.56406L9.13473 10.5641C9.31251 10.7418 9.4014 10.9585 9.4014 11.2141C9.4014 11.4696 9.31251 11.6974 9.13473 11.8974ZM4.53473 27.1307L1.4014 23.9974C1.2014 23.7974 1.10695 23.5641 1.11806 23.2974C1.12918 23.0307 1.22362 22.7863 1.4014 22.5641C3.22362 20.4307 5.41251 18.8029 7.96806 17.6807C10.5236 16.5585 13.2014 15.9974 16.0014 15.9974C18.8014 15.9974 21.4792 16.5585 24.0347 17.6807C26.5903 18.8029 28.7792 20.4307 30.6014 22.5641C30.7792 22.7863 30.8736 23.0307 30.8847 23.2974C30.8958 23.5641 30.8014 23.7974 30.6014 23.9974L27.4681 27.1307C27.2903 27.3085 27.0347 27.4085 26.7014 27.4307C26.3681 27.4529 26.1014 27.3863 25.9014 27.2307L22.1014 24.3974C21.9681 24.2974 21.8681 24.1807 21.8014 24.0474C21.7347 23.9141 21.7014 23.7641 21.7014 23.5974V18.9641C20.7681 18.6085 19.8181 18.3585 18.8514 18.2141C17.8847 18.0696 16.9347 17.9974 16.0014 17.9974C15.0681 17.9974 14.1181 18.0696 13.1514 18.2141C12.1847 18.3585 11.2347 18.6085 10.3014 18.9641V23.5974C10.3014 23.7641 10.2681 23.9141 10.2014 24.0474C10.1347 24.1807 10.0347 24.2974 9.9014 24.3974L6.09513 27.24C5.83264 27.4338 5.56042 27.5205 5.27846 27.5C4.99653 27.4795 4.74862 27.3564 4.53473 27.1307ZM8.13473 19.6641C7.29029 20.0863 6.47918 20.5918 5.7014 21.1807C4.92362 21.7696 4.17918 22.3974 3.46806 23.0641L5.36806 25.0307L8.13473 22.9974V19.6641ZM23.7014 19.5307V22.7974L26.6014 24.9974L28.5347 23.0641C27.8236 22.3307 27.0625 21.6807 26.2514 21.1141C25.4403 20.5474 24.5903 20.0196 23.7014 19.5307Z" fill="#999999"/>
</g>
</svg>
