<svg width="32" height="32" viewBox="0 0 32 32" fill="none" xmlns="http://www.w3.org/2000/svg">
<g id="DS Icons">
<path id="Vector" d="M25.031 12.1292L19.8643 6.9625L22.1977 4.62917C22.5754 4.25139 23.0421 4.0625 23.5977 4.0625C24.1532 4.0625 24.6199 4.25139 24.9977 4.62917L27.3643 6.99583C27.7421 7.37361 27.931 7.84028 27.931 8.39583C27.931 8.95139 27.7421 9.41806 27.3643 9.79583L25.031 12.1292ZM3.99766 27.9958V22.7958L10.4643 16.3292L3.09766 8.92917L8.89766 3.0625L16.331 10.4958L19.8643 6.9625L25.031 12.1292L21.4977 15.6625L28.931 23.0958L23.0977 28.8625L15.6977 21.4958L9.19766 27.9958H3.99766ZM11.8977 14.8958L14.8977 11.8958L12.4643 9.4625L10.8643 11.0625L9.46432 9.6625L11.0643 8.0625L8.93099 5.92917L5.93099 8.92917L11.8977 14.8958ZM23.031 26.0625L26.031 23.0625L23.8977 20.9292L22.2977 22.5292L20.8977 21.1292L22.4977 19.5292L20.0643 17.0958L17.0643 20.0958L23.031 26.0625ZM5.99766 25.9958H8.33099L22.1643 12.1625L19.831 9.82917L5.99766 23.6625V25.9958Z" fill="#999999"/>
</g>
</svg>
