<svg width="24" height="24" viewBox="0 0 24 24" fill="none" xmlns="http://www.w3.org/2000/svg">
<g clip-path="url(#clip0_14302_3488)">
<mask id="mask0_14302_3488" style="mask-type:alpha" maskUnits="userSpaceOnUse" x="0" y="0" width="24" height="24">
<rect width="24" height="24" fill="#D9D9D9"/>
</mask>
<g mask="url(#mask0_14302_3488)">
<path d="M9.54881 17.2774C9.4283 17.2774 9.31612 17.2582 9.21229 17.2197C9.10844 17.1813 9.00972 17.1153 8.91614 17.0217L4.74114 12.8467C4.59627 12.7018 4.5264 12.5236 4.53151 12.3121C4.53665 12.1005 4.61165 11.9223 4.75651 11.7775C4.90138 11.6326 5.07702 11.5602 5.28344 11.5602C5.48984 11.5602 5.66547 11.6326 5.81034 11.7775L9.54881 15.5159L18.1873 6.87748C18.3322 6.7326 18.5104 6.66016 18.7219 6.66016C18.9334 6.66016 19.1116 6.7326 19.2565 6.87748C19.4014 7.02235 19.4738 7.20055 19.4738 7.41208C19.4738 7.62361 19.4014 7.80181 19.2565 7.94668L10.1815 17.0217C10.0879 17.1153 9.98919 17.1813 9.88534 17.2197C9.7815 17.2582 9.66933 17.2774 9.54881 17.2774Z" fill="#16AF24"/>
</g>
</g>
<defs>
<clipPath id="clip0_14302_3488">
<rect width="24" height="24" fill="white"/>
</clipPath>
</defs>
</svg>
