<svg xmlns="http://www.w3.org/2000/svg" width="96" height="96" viewBox="0 0 96 96" fill="none">
<path d="M75.4604 52.6114C79.1546 52.6114 81.0017 54.4585 81.0017 58.1528V73.176C81.0017 76.8702 79.1546 78.7173 75.4604 78.7173H61.176C57.4818 78.7173 55.6346 76.8702 55.6346 73.176V58.1528C55.6346 49.5329 56.5377 42.0213 58.3438 35.6179C60.2319 29.1325 63.8851 23.468 69.3033 18.6244C71.1094 17.0646 72.6281 16.8594 73.8595 18.0087L79.4009 23.1807C80.6323 24.33 80.345 25.7256 78.5389 27.3675C75.7477 29.8303 73.4491 33.4014 71.643 38.0807C69.919 42.678 69.057 47.5216 69.057 52.6114H75.4604ZM34.8238 52.6114C38.518 52.6114 40.3651 54.4585 40.3651 58.1528V73.176C40.3651 76.8702 38.518 78.7173 34.8238 78.7173H20.5394C16.8452 78.7173 14.998 76.8702 14.998 73.176V58.1528C14.998 49.5329 15.9011 42.0213 17.7072 35.6179C19.5953 29.1325 23.2485 23.468 28.6667 18.6244C30.4728 17.0646 31.9915 16.8594 33.2229 18.0087L38.7643 23.1807C39.9957 24.33 39.7084 25.7256 37.9023 27.3675C35.1111 29.8303 32.8125 33.4014 31.0064 38.0807C29.2824 42.678 28.4204 47.5216 28.4204 52.6114H34.8238Z" fill="#273237"/>
</svg>